<svg width="1390" height="731" viewBox="0 0 1390 731" fill="none" xmlns="http://www.w3.org/2000/svg">
<g opacity="0.1">
<path d="M823.931 348.807C837.031 351.207 848.131 361.107 851.231 374.207C854.331 387.607 848.731 402.407 837.131 410.007C825.631 417.507 810.631 417.707 799.331 409.907C787.031 401.507 781.431 386.007 785.831 371.707C788.131 364.307 792.831 357.707 799.231 353.407C806.731 348.407 815.631 347.807 824.331 348.907C825.831 349.107 825.831 346.707 824.331 346.507C816.131 345.407 807.831 345.907 800.431 349.907C793.831 353.507 788.531 359.507 785.331 366.307C778.731 380.707 782.131 397.907 793.831 408.607C804.331 418.207 819.431 420.807 832.631 415.207C846.631 409.307 855.231 395.007 854.431 379.907C853.431 363.307 840.631 349.507 824.531 346.507C823.031 346.207 822.331 348.507 823.931 348.807Z" fill="#080522"/>
<path d="M820.831 365.807C828.731 367.407 834.831 374.207 834.531 382.507C834.231 391.607 826.431 398.807 817.231 398.407C808.331 398.007 801.231 390.107 801.531 381.307C801.631 376.907 803.631 372.707 806.731 369.707C810.731 365.907 815.731 365.207 821.031 365.907C822.531 366.107 822.531 363.707 821.031 363.507C810.231 362.207 800.331 368.507 799.131 379.907C798.031 390.107 805.731 399.707 815.931 400.807C826.031 401.807 835.331 394.507 836.631 384.507C837.931 374.507 831.031 365.607 821.331 363.607C820.031 363.207 819.331 365.507 820.831 365.807Z" fill="#080522"/>
<path d="M822.331 357.607C834.831 360.007 844.031 371.107 842.931 384.007C841.731 397.507 829.731 407.607 816.231 406.707C802.631 405.707 792.131 393.007 793.331 379.507C793.931 372.807 797.331 366.507 802.531 362.207C808.331 357.407 815.431 356.707 822.731 357.607C824.231 357.807 824.231 355.407 822.731 355.207C810.231 353.607 798.831 358.407 793.431 370.307C788.531 380.907 791.031 393.507 799.431 401.507C816.931 418.207 846.731 404.707 845.431 380.407C844.831 367.907 835.231 357.607 823.031 355.307C821.431 355.007 820.831 357.307 822.331 357.607Z" fill="#080522"/>
<path d="M819.831 372.707C819.731 372.707 819.631 372.707 819.531 372.707C814.131 372.107 809.331 375.207 808.631 380.907C808.031 386.007 811.831 390.907 816.931 391.507C821.931 392.107 826.631 388.507 827.431 383.507C828.331 378.307 824.831 373.807 819.831 372.707Z" fill="#080522"/>
<path d="M1100.87 514.979C1098.47 532.779 1096.07 550.579 1092.87 568.279C1093.37 567.979 1093.87 567.679 1094.37 567.379C1076.27 562.279 1058.47 556.079 1040.67 549.979C1040.77 550.679 1040.87 551.479 1040.97 552.179C1061.47 540.079 1082.07 528.279 1102.67 516.279C1103.97 515.479 1102.77 513.379 1101.47 514.179C1080.87 526.179 1060.27 537.979 1039.77 550.079C1038.87 550.679 1039.07 551.979 1040.07 552.279C1057.87 558.379 1075.67 564.579 1093.77 569.679C1094.37 569.879 1095.07 569.479 1095.27 568.779C1098.37 551.079 1100.87 533.279 1103.27 515.479C1103.37 514.079 1101.07 513.379 1100.87 514.979Z" fill="#080522"/>
<path d="M1039.17 550.879C1037.27 555.779 1036.17 561.279 1035.07 566.479C1034.77 567.979 1037.07 568.579 1037.37 567.079C1038.47 561.979 1039.67 556.479 1041.47 551.479C1042.07 549.979 1039.67 549.379 1039.17 550.879Z" fill="#080522"/>
<path d="M1092.87 568.279C1091.37 572.279 1089.67 576.279 1088.07 580.279C1087.47 581.679 1089.57 582.879 1090.17 581.479C1091.87 577.279 1093.67 573.179 1095.17 568.979C1095.77 567.379 1093.37 566.779 1092.87 568.279Z" fill="#080522"/>
<path d="M1089.37 579.679C1072.07 574.179 1054.07 570.179 1036.47 565.579C1034.97 565.179 1034.37 567.479 1035.87 567.879C1053.47 572.479 1071.47 576.479 1088.77 581.979C1090.27 582.379 1090.87 580.079 1089.37 579.679Z" fill="#080522"/>
<path d="M1040.67 551.379L1094.17 569.079L1088.97 580.479L1036.67 566.479L1040.67 551.379Z" fill="#080522"/>
<path d="M952.799 551.279C951.399 546.379 945.899 543.179 940.899 544.279C935.599 545.479 932.299 551.079 933.599 556.279C934.899 561.579 940.899 564.579 945.999 563.179C946.099 563.179 946.199 563.179 946.299 563.079C946.399 563.079 946.499 562.979 946.599 562.979C951.099 560.979 954.199 556.279 952.799 551.279ZM945.599 560.779C941.899 561.979 937.499 560.079 936.099 556.279C934.599 552.179 937.099 547.479 941.499 546.579C944.999 545.879 949.199 548.079 950.299 551.479C951.699 555.279 949.299 559.279 945.599 560.779Z" fill="#080522"/>
<path d="M902.799 580.379C900.599 583.979 900.399 588.679 903.199 592.079C905.799 595.179 910.099 596.579 913.999 595.279C915.499 594.779 914.799 592.479 913.399 592.979C910.599 593.879 907.499 593.079 905.399 590.879C902.899 588.279 903.099 584.579 904.899 581.579C905.699 580.279 903.699 579.079 902.799 580.379Z" fill="#080522"/>
<path d="M914.099 595.279C915.099 594.879 916.099 594.479 916.899 593.779C917.399 593.379 917.699 592.779 917.299 592.179C916.999 591.679 916.199 591.379 915.699 591.779C914.999 592.279 914.299 592.779 913.499 592.979C912.899 593.179 912.499 593.779 912.699 594.479C912.799 594.979 913.499 595.479 914.099 595.279Z" fill="#080522"/>
<path d="M936.399 546.479C925.199 557.679 914.199 568.979 902.999 580.079C901.899 581.179 903.599 582.879 904.699 581.779C915.899 570.579 926.899 559.279 938.099 548.179C939.199 547.079 937.499 545.379 936.399 546.479Z" fill="#080522"/>
<path d="M948.999 558.379C937.799 569.579 926.599 580.679 915.399 591.879C914.299 592.979 915.999 594.679 917.099 593.579C928.299 582.379 939.499 571.279 950.699 560.079C951.799 558.979 950.099 557.279 948.999 558.379Z" fill="#080522"/>
<path d="M862.299 557.363C866.699 552.963 867.499 545.963 864.099 540.663C860.699 535.363 853.799 532.963 847.699 534.063C843.099 534.963 834.899 541.163 839.699 546.463C843.699 550.963 849.299 544.363 850.399 540.663C854.199 527.563 837.899 512.863 825.499 519.563C821.899 521.563 816.799 528.163 821.299 531.863C826.599 536.163 830.499 527.763 830.399 523.663C830.299 516.763 824.999 510.263 818.099 509.163C810.699 508.063 803.899 512.663 801.099 519.363C800.499 520.763 802.799 521.363 803.399 519.963C807.699 509.363 823.099 508.363 827.199 519.663C827.999 521.863 828.399 525.363 827.199 527.563C825.399 530.763 821.299 529.763 822.299 526.563C822.799 524.863 824.199 523.263 825.699 522.263C830.199 519.263 836.199 520.363 840.499 523.163C845.099 526.163 848.299 531.263 848.399 536.863C848.499 539.363 847.399 544.163 844.599 545.063C841.499 545.763 840.499 543.163 841.399 541.263C841.799 540.363 842.299 539.563 843.099 538.963C844.199 537.963 845.699 537.263 847.199 536.763C858.099 533.663 869.799 546.563 860.599 555.763C859.499 556.763 861.199 558.463 862.299 557.363Z" fill="#080522"/>
<path d="M1067.46 742.904C1070.26 738.004 1073.16 733.104 1075.96 728.204C1076.76 726.904 1074.66 725.704 1073.86 727.004C1071.06 731.904 1068.16 736.804 1065.36 741.704C1064.66 743.004 1066.66 744.204 1067.46 742.904Z" fill="#080522"/>
<path d="M1078.96 742.904C1081.76 738.004 1084.66 733.104 1087.46 728.204C1088.26 726.904 1086.16 725.704 1085.36 727.004C1082.56 731.904 1079.66 736.804 1076.86 741.704C1076.16 743.004 1078.26 744.204 1078.96 742.904Z" fill="#080522"/>
<path d="M1090.56 742.904C1093.36 738.004 1096.26 733.104 1099.06 728.204C1099.86 726.904 1097.76 725.704 1096.96 727.004C1094.16 731.904 1091.26 736.804 1088.46 741.704C1087.66 743.004 1089.76 744.204 1090.56 742.904Z" fill="#080522"/>
<path d="M1102.06 742.904C1104.86 738.004 1107.76 733.104 1110.56 728.204C1111.36 726.904 1109.26 725.704 1108.46 727.004C1105.66 731.904 1102.76 736.804 1099.96 741.704C1099.26 743.004 1101.26 744.204 1102.06 742.904Z" fill="#080522"/>
<path d="M1113.66 742.904C1116.46 738.004 1119.36 733.104 1122.16 728.204C1122.96 726.904 1120.86 725.704 1120.06 727.004C1117.26 731.904 1114.36 736.804 1111.56 741.704C1110.76 743.004 1112.86 744.204 1113.66 742.904Z" fill="#080522"/>
<path d="M1125.16 742.904C1127.96 738.004 1130.86 733.104 1133.66 728.204C1134.46 726.904 1132.36 725.704 1131.56 727.004C1128.76 731.904 1125.86 736.804 1123.06 741.704C1122.36 743.004 1124.36 744.204 1125.16 742.904Z" fill="#080522"/>
<path d="M1061.06 641.904C1050.76 652.104 1040.46 662.404 1030.06 672.604C1028.96 673.704 1030.66 675.404 1031.76 674.304C1042.06 664.104 1052.36 653.804 1062.76 643.604C1063.86 642.504 1062.16 640.804 1061.06 641.904Z" fill="#080522"/>
<path d="M1031.76 672.604C1021.66 662.504 1011.46 652.304 1001.36 642.204C1000.26 641.104 998.556 642.804 999.656 643.904C1009.76 654.004 1019.96 664.204 1030.06 674.304C1031.16 675.404 1032.86 673.704 1031.76 672.604Z" fill="#080522"/>
<path d="M1001.36 643.904C1011.66 633.604 1021.96 623.304 1032.16 613.104C1033.26 612.004 1031.56 610.304 1030.46 611.404C1020.16 621.704 1009.86 632.004 999.656 642.204C998.556 643.304 1000.26 645.004 1001.36 643.904Z" fill="#080522"/>
<path d="M1030.46 613.004C1040.66 623.204 1050.86 633.404 1061.06 643.604C1062.16 644.704 1063.86 643.004 1062.76 641.904C1052.56 631.704 1042.36 621.504 1032.16 611.304C1031.06 610.304 1029.46 612.004 1030.46 613.004Z" fill="#080522"/>
<path d="M1017.56 672.704C1007.36 662.504 997.256 652.404 987.056 642.204C985.956 641.104 984.256 642.804 985.356 643.904C995.556 654.104 1005.66 664.204 1015.86 674.404C1016.96 675.504 1018.66 673.804 1017.56 672.704Z" fill="#080522"/>
<path d="M987.056 643.904C997.356 633.604 1007.66 623.304 1017.86 613.104C1018.96 612.004 1017.26 610.304 1016.16 611.404C1005.86 621.704 995.556 632.004 985.356 642.204C984.256 643.304 985.956 645.004 987.056 643.904Z" fill="#080522"/>
<path d="M1030.86 672.304C1026.16 672.304 1021.36 672.304 1016.66 672.304C1015.16 672.304 1015.16 674.704 1016.66 674.704C1021.36 674.704 1026.16 674.704 1030.86 674.704C1032.46 674.704 1032.46 672.304 1030.86 672.304Z" fill="#080522"/>
<path d="M1030.86 611.004C1026.26 611.004 1021.56 611.004 1016.96 611.004C1015.46 611.004 1015.46 613.404 1016.96 613.404C1021.56 613.404 1026.26 613.404 1030.86 613.404C1032.46 613.404 1032.46 611.004 1030.86 611.004Z" fill="#080522"/>
<path d="M1000.46 641.904C995.756 641.904 990.956 641.904 986.256 641.904C984.756 641.904 984.756 644.304 986.256 644.304C990.956 644.304 995.756 644.304 1000.46 644.304C1001.96 644.304 1001.96 641.904 1000.46 641.904Z" fill="#080522"/>
<path d="M1026.16 668.404C1036.16 658.404 1046.16 648.404 1056.16 638.504C1057.26 637.404 1055.56 635.704 1054.46 636.804C1044.46 646.804 1034.46 656.804 1024.46 666.704C1023.36 667.804 1025.06 669.504 1026.16 668.404Z" fill="#080522"/>
<path d="M1019.96 662.204C1029.96 652.204 1039.96 642.204 1049.96 632.304C1051.06 631.204 1049.36 629.504 1048.26 630.604C1038.26 640.604 1028.26 650.604 1018.26 660.504C1017.16 661.604 1018.86 663.304 1019.96 662.204Z" fill="#080522"/>
<path d="M1013.66 655.904C1023.66 645.904 1033.66 635.904 1043.66 626.004C1044.76 624.904 1043.06 623.204 1041.96 624.304C1031.96 634.304 1021.96 644.304 1011.96 654.204C1010.86 655.304 1012.56 657.004 1013.66 655.904Z" fill="#080522"/>
<path d="M1007.46 649.704C1017.46 639.704 1027.46 629.704 1037.46 619.804C1038.56 618.704 1036.86 617.004 1035.76 618.104C1025.76 628.104 1015.76 638.104 1005.76 648.004C1004.66 649.104 1006.36 650.804 1007.46 649.704Z" fill="#080522"/>
<path d="M1170.36 696.104L1195.16 658.904C1195.56 658.204 1195.16 657.304 1194.36 657.304H1144.76C1143.96 657.304 1143.46 658.204 1143.96 658.904L1168.86 696.104C1169.16 696.704 1169.96 696.704 1170.36 696.104Z" fill="#080522"/>
<path d="M1195.46 672.504C1178.26 672.504 1160.96 672.504 1143.76 672.504C1142.26 672.504 1142.26 674.904 1143.76 674.904C1160.96 674.904 1178.26 674.904 1195.46 674.904C1197.06 674.904 1197.06 672.504 1195.46 672.504Z" fill="#080522"/>
<path d="M1194.46 673.104C1185.86 685.404 1177.16 697.604 1168.56 709.904C1167.66 711.204 1169.76 712.404 1170.66 711.104C1179.26 698.804 1187.96 686.604 1196.56 674.304C1197.46 673.104 1195.36 671.904 1194.46 673.104Z" fill="#080522"/>
<path d="M1142.76 674.304C1151.36 686.504 1159.86 698.804 1168.46 711.004C1169.36 712.204 1171.46 711.104 1170.56 709.804C1161.96 697.604 1153.46 685.304 1144.86 673.104C1143.96 671.904 1141.86 673.104 1142.76 674.304Z" fill="#080522"/>
<path d="M802.356 268.056C808.756 274.456 815.156 280.856 821.456 287.156C822.556 288.256 824.256 286.556 823.156 285.456C816.756 279.056 810.356 272.656 804.056 266.356C802.956 265.256 801.256 266.956 802.356 268.056Z" fill="#080522"/>
<path d="M818.256 269.656C826.256 277.656 834.256 285.656 842.356 293.756C843.456 294.856 845.156 293.156 844.056 292.056C836.056 284.056 828.056 276.056 819.956 267.956C818.856 266.856 817.156 268.556 818.256 269.656Z" fill="#080522"/>
<path d="M1136.88 496.8C1132.98 496.8 1129.08 495.9 1125.58 494.3C1115.08 489.3 1109.68 478.7 1111.28 466.1V466C1111.28 465.9 1111.28 465.8 1111.28 465.7C1113.68 453.4 1124.18 444.3 1136.38 444C1136.58 444 1136.88 444 1137.08 444C1147.78 444 1157.08 450.3 1161.28 460.4C1165.48 470.5 1163.38 481.5 1155.78 489.1C1150.78 493.9 1143.88 496.8 1136.88 496.8ZM1137.18 448.3C1126.78 448.3 1117.68 456 1115.58 466.6C1114.68 474.2 1115.98 479.9 1119.68 484.3C1123.58 488.9 1129.18 491.8 1134.98 492.4C1135.58 492.5 1136.18 492.5 1136.88 492.5C1147.78 492.5 1157.28 484.5 1158.98 473.9C1160.88 462.2 1152.58 450.6 1140.78 448.7C1139.58 448.4 1138.38 448.3 1137.18 448.3Z" fill="#080522"/>
<path d="M1127.28 468.7C1128.38 463.6 1132.68 459.8 1137.98 460.3C1143.88 460.8 1148.38 466.5 1147.08 472.4C1145.98 477.3 1141.38 480.8 1136.28 480.5C1129.78 480.1 1126.68 474.3 1127.28 468.4C1127.48 466.9 1125.08 466.9 1124.88 468.4C1124.18 475.2 1127.78 481.4 1134.88 482.7C1141.78 484 1148.68 478.9 1149.58 471.9C1150.38 465.3 1145.68 459.1 1139.08 458.1C1132.28 457.1 1126.38 461.6 1124.98 468.1C1124.58 469.6 1126.88 470.2 1127.28 468.7Z" fill="#080522"/>
<path d="M738.62 445.2L720.82 471.9C720.42 472.6 720.82 473.5 721.62 473.5H757.22C758.02 473.5 758.52 472.6 758.02 471.9L740.22 445.2C739.82 444.6 739.02 444.7 738.62 445.2Z" fill="#080522"/>
<path d="M786.22 444C773.52 444 760.82 444 748.12 444C746.62 444 746.62 446.4 748.12 446.4C760.82 446.4 773.52 446.4 786.22 446.4C787.72 446.4 787.72 444 786.22 444Z" fill="#080522"/>
<path d="M785.12 444.6C778.72 453.6 772.42 462.7 766.02 471.7C765.12 473 767.22 474.2 768.12 472.9C774.52 463.9 780.82 454.8 787.22 445.8C788.12 444.5 786.02 443.3 785.12 444.6Z" fill="#080522"/>
<path d="M747.02 445.8C753.32 454.8 759.62 463.9 766.02 472.9C766.92 474.1 769.02 473 768.12 471.7C761.82 462.7 755.52 453.6 749.12 444.6C748.22 443.3 746.12 444.5 747.02 445.8Z" fill="#080522"/>
<path d="M732.319 444C719.619 444 706.919 444 694.219 444C692.719 444 692.719 446.4 694.219 446.4C706.919 446.4 719.619 446.4 732.319 446.4C733.919 446.4 733.919 444 732.319 444Z" fill="#080522"/>
<path d="M731.32 444.6C724.92 453.6 718.62 462.7 712.22 471.7C711.32 473 713.42 474.2 714.32 472.9C720.72 463.9 727.02 454.8 733.42 445.8C734.32 444.5 732.22 443.3 731.32 444.6Z" fill="#080522"/>
<path d="M693.22 445.8C699.52 454.8 705.82 463.9 712.22 472.9C713.12 474.1 715.22 473 714.32 471.7C708.02 462.7 701.72 453.6 695.32 444.6C694.42 443.3 692.32 444.5 693.22 445.8Z" fill="#080522"/>
<path d="M886.727 720.769C895.727 711.769 904.727 702.769 913.727 693.769C914.827 692.669 913.127 690.969 912.027 692.069C903.027 701.069 894.027 710.069 885.027 719.069C884.027 720.169 885.627 721.869 886.727 720.769Z" fill="#080522"/>
<path d="M887.027 719.569C885.127 708.669 883.227 697.769 881.327 686.869C881.027 685.369 878.727 685.969 879.027 687.469C880.927 698.369 882.827 709.269 884.727 720.169C885.027 721.769 887.327 721.069 887.027 719.569Z" fill="#080522"/>
<path d="M913.227 691.769C902.327 689.869 891.527 687.969 880.627 686.069C879.127 685.769 878.427 688.069 880.027 688.369C890.927 690.269 901.727 692.169 912.627 694.069C914.027 694.369 914.727 692.069 913.227 691.769Z" fill="#080522"/>
<path d="M890.527 699.069L896.827 730.469C897.027 731.269 897.927 731.569 898.527 730.969L923.727 705.769C924.327 705.169 924.027 704.269 923.227 704.069L891.727 697.869C891.027 697.669 890.327 698.369 890.527 699.069Z" fill="#080522"/>
<path d="M910.827 744.869C919.827 735.869 928.827 726.869 937.827 717.869C938.927 716.769 937.227 715.069 936.127 716.169C927.127 725.169 918.127 734.169 909.127 743.169C908.027 744.269 909.727 745.969 910.827 744.869Z" fill="#080522"/>
<path d="M911.127 743.669C909.227 732.769 907.327 721.869 905.427 710.969C905.127 709.469 902.827 710.069 903.127 711.569C905.027 722.469 906.927 733.369 908.827 744.269C909.127 745.869 911.427 745.169 911.127 743.669Z" fill="#080522"/>
<path d="M937.327 715.869C926.427 713.969 915.627 712.069 904.727 710.169C903.227 709.869 902.527 712.169 904.127 712.469C915.027 714.369 925.827 716.269 936.727 718.169C938.127 718.469 938.827 716.169 937.327 715.869Z" fill="#080522"/>
<path d="M636.037 389.149C637.037 383.149 641.437 377.949 647.137 375.949C652.837 373.949 659.537 375.249 664.037 379.249C668.537 383.249 670.637 389.749 669.437 395.649C668.137 401.549 663.537 406.549 657.737 408.349C655.037 409.249 652.037 409.349 649.237 408.849C644.837 407.949 640.837 405.349 638.237 401.649C635.737 397.949 635.337 393.649 636.037 389.149Z" fill="#080522"/>
<path d="M619.537 389.649C621.037 382.549 627.037 377.049 634.537 377.449C643.037 377.849 649.437 385.649 648.337 394.049C647.237 401.849 639.937 407.449 632.137 406.649C623.137 405.649 618.537 397.849 619.537 389.349C619.737 387.849 617.337 387.849 617.137 389.349C616.037 399.049 621.637 408.049 631.937 409.049C640.937 409.949 649.437 403.349 650.737 394.349C651.937 385.049 645.337 376.349 636.037 375.149C627.037 373.949 619.037 380.149 617.237 388.949C616.937 390.549 619.237 391.249 619.537 389.649Z" fill="#080522"/>
<path d="M810.103 608.2C809.803 624.4 796.802 638.1 780.502 638.7C772.602 639 764.802 636.1 758.802 630.8C752.102 624.9 749.302 616.9 749.402 608.2C749.402 606.7 747.002 606.7 747.002 608.2C746.902 617.3 749.803 625.8 756.603 632.1C763.003 638 771.702 641.3 780.402 641.1C798.102 640.6 812.102 625.7 812.402 608.2C812.502 606.6 810.103 606.6 810.103 608.2Z" fill="#080522"/>
<path d="M792.202 608.2C791.902 614.6 787.402 620 780.902 620.6C773.302 621.4 767.302 615.6 767.302 608.2C767.302 606.7 764.902 606.7 764.902 608.2C765.002 616.7 771.702 623.6 780.402 623.1C788.502 622.6 794.302 616.1 794.702 608.2C794.702 606.6 792.302 606.6 792.202 608.2Z" fill="#080522"/>
<path d="M802.003 608.2C801.803 619.9 792.603 629.9 780.803 630.6C767.703 631.3 757.303 621.1 757.403 608.2C757.403 606.7 755.003 606.7 755.003 608.2C754.803 622.3 766.403 633.7 780.703 633C793.803 632.3 804.103 621.2 804.303 608.2C804.403 606.6 802.003 606.6 802.003 608.2Z" fill="#080522"/>
<path d="M1145.2 313.4C1148.4 317.9 1154.4 319.8 1159.7 318.9C1165.7 317.9 1169.5 313.2 1171.1 307.6C1172.2 304 1172.9 296.7 1167.8 295.6C1163.9 294.8 1161.3 298.8 1162.6 302.2C1164.7 307.9 1172.6 307.2 1177.1 305C1182.6 302.4 1186.8 296.7 1187.3 290.6C1187.6 286.3 1185.4 280.9 1180.3 281.5C1174.9 282.1 1174.2 288.6 1177.7 291.9C1182.5 296.5 1190.9 296.2 1196.1 292.6C1201.8 288.8 1203.9 281.6 1202.2 275.2C1201.8 273.7 1199.5 274.3 1199.9 275.8C1202.4 285.1 1194.8 294.4 1185 292.7C1182.3 292.2 1179.9 291.1 1178.6 288.7C1176.8 285.2 1180.4 282.8 1183.4 284.9C1184.1 285.4 1184.6 287 1184.8 287.9C1185.8 292.3 1183.1 297.4 1179.9 300.3C1177.1 302.9 1165.2 308 1165 300.6C1165 298.5 1165.6 297.6 1167.7 298.6C1169.3 299.3 1169.5 300.4 1169.6 302.1C1169.7 304.1 1169.2 306.2 1168.5 308C1166.9 312.3 1163.9 315.7 1159.2 316.4C1155 317.1 1149.9 315.7 1147.3 312C1146.3 311 1144.3 312.1 1145.2 313.4Z" fill="#080522"/>
<path d="M1307.3 332.6C1300.3 325.6 1293.2 318.5 1286.2 311.5C1285.1 310.4 1283.4 312.1 1284.5 313.2C1291.5 320.2 1298.6 327.3 1305.6 334.3C1306.7 335.4 1308.4 333.7 1307.3 332.6Z" fill="#080522"/>
<path d="M1302.4 315C1296.3 308.9 1290.3 302.9 1284.2 296.8C1283.1 295.7 1281.4 297.4 1282.5 298.5C1288.6 304.6 1294.6 310.6 1300.7 316.7C1301.8 317.8 1303.5 316.1 1302.4 315Z" fill="#080522"/>
<path d="M1092.3 407.2C1092.4 389.9 1092.5 372.7 1092.5 355.4C1092.5 353.9 1090.1 353.9 1090.1 355.4C1090 372.7 1089.9 389.9 1089.9 407.2C1089.9 408.7 1092.3 408.7 1092.3 407.2Z" fill="#080522"/>
<path d="M1091.4 356.5C1111.8 356.5 1132.2 356.5 1152.6 356.5C1154.1 356.5 1154.1 354.1 1152.6 354.1C1132.2 354.1 1111.8 354.1 1091.4 354.1C1089.8 354.1 1089.8 356.5 1091.4 356.5Z" fill="#080522"/>
<path d="M1151.4 355.3C1151.4 372.6 1151.4 389.8 1151.4 407.1C1151.4 408.6 1153.8 408.6 1153.8 407.1C1153.8 389.8 1153.8 372.6 1153.8 355.3C1153.8 353.8 1151.4 353.8 1151.4 355.3Z" fill="#080522"/>
<path d="M1152.6 406C1132.1 406 1111.6 406 1091.1 406C1089.6 406 1089.6 408.4 1091.1 408.4C1111.6 408.4 1132.1 408.4 1152.6 408.4C1154.2 408.4 1154.2 406 1152.6 406Z" fill="#080522"/>
<path d="M1103.3 344.5C1123.8 344.5 1144.2 344.5 1164.7 344.5C1166.2 344.5 1166.2 342.1 1164.7 342.1C1144.2 342.1 1123.8 342.1 1103.3 342.1C1101.7 342.1 1101.7 344.5 1103.3 344.5Z" fill="#080522"/>
<path d="M1163.5 343.3C1163.5 360.6 1163.5 377.8 1163.5 395.1C1163.5 396.6 1165.9 396.6 1165.9 395.1C1165.9 377.8 1165.9 360.6 1165.9 343.3C1165.9 341.7 1163.5 341.7 1163.5 343.3Z" fill="#080522"/>
<path d="M1102.3 356.1C1106.3 352.1 1110.2 348.1 1114.2 344.1C1115.3 343 1113.6 341.3 1112.5 342.4C1108.5 346.4 1104.6 350.4 1100.6 354.4C1099.5 355.5 1101.2 357.2 1102.3 356.1Z" fill="#080522"/>
<path d="M1153.9 407.6C1157.8 403.7 1161.7 399.8 1165.6 395.9C1166.7 394.8 1165 393.1 1163.9 394.2C1160 398.1 1156.1 402 1152.2 405.9C1151.1 407 1152.8 408.7 1153.9 407.6Z" fill="#080522"/>
<path d="M1153.5 356.1C1157.5 352.1 1161.4 348.1 1165.4 344.1C1166.5 343 1164.8 341.3 1163.7 342.4C1159.7 346.4 1155.8 350.4 1151.8 354.4C1150.7 355.5 1152.4 357.2 1153.5 356.1Z" fill="#080522"/>
<path d="M1143.3 356.1C1147.3 352.1 1151.2 348.1 1155.2 344.1C1156.3 343 1154.6 341.3 1153.5 342.4C1149.5 346.4 1145.6 350.4 1141.6 354.4C1140.5 355.5 1142.2 357.2 1143.3 356.1Z" fill="#080522"/>
<path d="M1133.1 356.1C1137.1 352.1 1141 348.1 1145 344.1C1146.1 343 1144.4 341.3 1143.3 342.4C1139.3 346.4 1135.4 350.4 1131.4 354.4C1130.3 355.5 1132 357.2 1133.1 356.1Z" fill="#080522"/>
<path d="M1122.8 356.1C1126.8 352.1 1130.7 348.1 1134.7 344.1C1135.8 343 1134.1 341.3 1133 342.4C1129 346.4 1125.1 350.4 1121.1 354.4C1120.1 355.5 1121.8 357.2 1122.8 356.1Z" fill="#080522"/>
<path d="M1112.6 356.1C1116.6 352.1 1120.5 348.1 1124.5 344.1C1125.6 343 1123.9 341.3 1122.8 342.4C1118.8 346.4 1114.9 350.4 1110.9 354.4C1109.8 355.5 1111.5 357.2 1112.6 356.1Z" fill="#080522"/>
<path d="M1092.1 356.1C1096.1 352.1 1100 348.1 1104 344.1C1105.1 343 1103.4 341.3 1102.3 342.4C1098.3 346.4 1094.4 350.4 1090.4 354.4C1089.3 355.5 1091 357.2 1092.1 356.1Z" fill="#080522"/>
<path d="M1163.8 383.7C1159.8 387.7 1155.8 391.6 1151.8 395.6C1150.7 396.7 1152.4 398.4 1153.5 397.3C1157.5 393.3 1161.5 389.4 1165.5 385.4C1166.6 384.3 1164.9 382.6 1163.8 383.7Z" fill="#080522"/>
<path d="M1163.8 373.5C1159.8 377.5 1155.8 381.4 1151.8 385.4C1150.7 386.5 1152.4 388.2 1153.5 387.1C1157.5 383.1 1161.5 379.2 1165.5 375.2C1166.6 374.1 1164.9 372.4 1163.8 373.5Z" fill="#080522"/>
<path d="M1163.8 363.3C1159.8 367.3 1155.8 371.2 1151.8 375.2C1150.7 376.3 1152.4 378 1153.5 376.9C1157.5 372.9 1161.5 369 1165.5 365C1166.6 363.9 1164.9 362.2 1163.8 363.3Z" fill="#080522"/>
<path d="M1163.8 353.1C1159.8 357.1 1155.8 361 1151.8 365C1150.7 366.1 1152.4 367.8 1153.5 366.7C1157.5 362.7 1161.5 358.8 1165.5 354.8C1166.6 353.7 1164.9 352 1163.8 353.1Z" fill="#080522"/>
<path d="M1373.5 506.4C1378.2 504.5 1381.4 499.7 1380 494.6C1378.6 489.7 1373.1 486.5 1368.1 487.6C1362.8 488.8 1359.5 494.4 1360.8 499.6C1362.2 505 1368.3 508.1 1373.5 506.4C1375 505.9 1374.3 503.6 1372.9 504.1C1369.2 505.3 1364.8 503.4 1363.4 499.6C1361.9 495.5 1364.4 490.8 1368.8 489.9C1372.3 489.2 1376.5 491.4 1377.6 494.8C1378.9 498.6 1376.5 502.6 1372.9 504.1C1371.4 504.7 1372 507 1373.5 506.4Z" fill="#080522"/>
<path d="M1323.9 529.9C1321.7 533.5 1321.5 538.2 1324.3 541.6C1326.9 544.7 1331.2 546.1 1335.1 544.8C1336.6 544.3 1335.9 542 1334.5 542.5C1331.7 543.4 1328.6 542.6 1326.5 540.4C1324 537.8 1324.2 534.1 1326 531.1C1326.7 529.8 1324.7 528.6 1323.9 529.9Z" fill="#080522"/>
<path d="M1335.1 544.8C1336.1 544.4 1337.1 544 1337.9 543.3C1338.4 542.9 1338.7 542.3 1338.3 541.7C1338 541.2 1337.2 540.9 1336.7 541.3C1336 541.8 1335.3 542.3 1334.5 542.5C1333.9 542.7 1333.5 543.3 1333.7 544C1333.8 544.5 1334.5 545 1335.1 544.8Z" fill="#080522"/>
<path d="M1363.6 489.9C1350.4 503.1 1337.3 516.5 1324 529.7C1322.9 530.8 1324.6 532.5 1325.7 531.4C1338.9 518.2 1352 504.8 1365.3 491.6C1366.4 490.5 1364.7 488.8 1363.6 489.9Z" fill="#080522"/>
<path d="M1376.2 501.8C1363 515 1349.7 528.2 1336.5 541.4C1335.4 542.5 1337.1 544.2 1338.2 543.1C1351.4 529.9 1364.7 516.7 1377.9 503.5C1378.9 502.4 1377.3 500.7 1376.2 501.8Z" fill="#080522"/>
<path d="M1370.3 328.2C1373.5 331.3 1386.4 344 1389.6 347.3C1390 347.7 1390 348.3 1389.6 348.7C1386.5 351.9 1373.8 364.8 1370.5 368.1C1370.1 368.5 1369.5 368.5 1369.1 368.1C1365.9 364.9 1352.9 351.9 1349.7 348.7C1349.3 348.3 1349.3 347.7 1349.7 347.3C1352.8 344.2 1365.7 331.3 1368.9 328.1C1369.2 327.9 1369.9 327.9 1370.3 328.2Z" fill="#080522"/>
<path d="M1337.5 349C1344.4 342.1 1351.4 335.2 1358.3 328.4C1359.4 327.3 1357.7 325.6 1356.6 326.7C1349.7 333.6 1342.7 340.5 1335.8 347.3C1334.7 348.4 1336.4 350.1 1337.5 349Z" fill="#080522"/>
<path d="M1356.7 328.4C1363.5 335.2 1370.3 342 1377.2 348.9C1378.3 350 1380 348.3 1378.9 347.2C1372.1 340.4 1365.3 333.6 1358.4 326.7C1357.3 325.6 1355.6 327.3 1356.7 328.4Z" fill="#080522"/>
<path d="M1377.1 347.2C1370.2 354.1 1363.3 361 1356.4 367.9C1355.3 369 1357 370.7 1358.1 369.6C1365 362.7 1371.9 355.8 1378.8 348.9C1379.9 347.8 1378.2 346.1 1377.1 347.2Z" fill="#080522"/>
<path d="M1358.1 367.9C1351.2 361 1344.4 354.2 1337.5 347.3C1336.4 346.2 1334.7 347.9 1335.8 349C1342.7 355.9 1349.5 362.7 1356.4 369.6C1357.5 370.7 1359.2 369 1358.1 367.9Z" fill="#080522"/>
<path d="M1238.1 593.9C1240.5 580.8 1250.4 569.7 1263.5 566.6C1276.9 563.5 1291.7 569.1 1299.3 580.7C1306.8 592.2 1307 607.2 1299.2 618.5C1290.8 630.8 1275.3 636.4 1261 632C1253.6 629.7 1247 625 1242.7 618.6C1237.7 611.1 1237.1 602.2 1238.2 593.5C1238.4 592 1236 592 1235.8 593.5C1234.7 601.7 1235.2 610 1239.2 617.4C1242.8 624 1248.8 629.3 1255.6 632.5C1270 639.1 1287.2 635.7 1297.9 624C1307.5 613.5 1310.1 598.4 1304.5 585.2C1298.6 571.2 1284.3 562.6 1269.2 563.4C1252.7 564.3 1238.9 577.1 1235.9 593.2C1235.5 594.8 1237.8 595.4 1238.1 593.9Z" fill="#080522"/>
<path d="M1260 597.8C1261.3 591.7 1266.6 587.4 1273 588.3C1279.4 589.3 1283.9 595.5 1282.6 602C1281.3 608 1275.1 612.2 1269.1 611C1262.4 609.7 1259.4 603.9 1260.1 597.5C1260.3 596 1257.9 596 1257.7 597.5C1256.8 605.4 1261.4 612.6 1269.7 613.5C1277.1 614.3 1284.1 608.9 1285.1 601.5C1286.1 594.1 1280.9 587.1 1273.5 585.9C1266 584.7 1259.3 589.8 1257.7 597.1C1257.3 598.7 1259.6 599.3 1260 597.8Z" fill="#080522"/>
<path d="M1244.7 595.1C1247.3 581.4 1259.7 571.3 1273.7 572.7C1288.4 574.1 1299.4 587.3 1298.2 602.1C1297 616.9 1283 628.2 1268.3 626.8C1261.1 626.1 1254.2 622.3 1249.6 616.7C1244.4 610.4 1243.7 602.6 1244.7 594.8C1244.9 593.3 1242.5 593.3 1242.3 594.8C1240.6 608 1245.4 620.1 1257.8 626.2C1269.2 631.8 1283.1 629.5 1292 620.5C1300.6 611.8 1302.9 598.8 1298 587.7C1293.1 576.6 1281.6 569.7 1269.5 570.3C1256 571 1244.8 581.4 1242.3 594.6C1242.1 596 1244.4 596.6 1244.7 595.1Z" fill="#080522"/>
<path d="M1252.1 596.4C1254.1 586.2 1263.4 578.9 1273.9 580.3C1284.3 581.7 1291.7 591.3 1290.7 601.7C1289.7 612.1 1279.9 619.9 1269.6 619.2C1264.3 618.8 1259.4 616.2 1255.9 612.3C1251.9 607.7 1251.4 601.9 1252.1 596.1C1252.3 594.6 1249.9 594.6 1249.7 596.1C1248.5 606 1252.1 615 1261.4 619.5C1269.7 623.5 1279.9 621.9 1286.5 615.4C1300.3 601.8 1290.4 577.7 1271 577.8C1260.5 577.9 1251.8 585.7 1249.8 595.8C1249.5 597.3 1251.8 597.9 1252.1 596.4Z" fill="#080522"/>
<path d="M1266.6 599C1267.1 596.7 1268.9 594.9 1271.4 594.9C1274.3 595 1276.5 597.7 1276 600.6C1275.5 603 1273.2 604.7 1270.9 604.4C1267.8 604.1 1266.4 601.4 1266.7 598.6C1266.9 597.1 1264.5 597.1 1264.3 598.6C1263.9 602.7 1266.3 606.3 1270.5 606.8C1274.3 607.2 1278 604.4 1278.4 600.6C1278.9 596.8 1276.2 593.3 1272.4 592.7C1268.5 592.1 1265.1 594.7 1264.3 598.4C1263.9 599.8 1266.2 600.5 1266.6 599Z" fill="#080522"/>
<path d="M1196.1 597.4C1195.3 597.4 1194.5 596.9 1194.1 596.1C1193.8 595.3 1194 594.5 1194.6 593.9C1200.2 588.5 1203 582.2 1202.9 575.3C1202.8 568.2 1199.9 561.3 1194.9 556.3C1189.9 551.3 1183.1 548.5 1175.9 548.5C1168.7 548.5 1161.9 551.2 1156.8 556.2C1156.4 556.6 1155.9 556.8 1155.4 556.8C1154.6 556.8 1153.8 556.3 1153.4 555.5C1153.1 554.7 1153.3 553.9 1153.9 553.3C1159.8 547.6 1167.6 544.5 1175.9 544.5C1184.3 544.5 1192.1 547.7 1197.8 553.5C1203.7 559.4 1207 567.6 1206.9 576C1206.8 583.7 1203.5 591 1197.4 596.9C1197.1 597.2 1196.6 597.4 1196.1 597.4Z" fill="#080522"/>
<path d="M1184.5 585.9C1183.7 585.9 1182.9 585.4 1182.6 584.6C1182.3 583.8 1182.5 583 1183 582.4C1185.1 580.3 1186.2 577.6 1186.2 574.8C1186.2 572.1 1185.1 569.5 1183 567.6C1181.1 565.7 1178.5 564.7 1175.7 564.7C1172.9 564.7 1170.2 565.8 1168.2 567.7C1167.8 568.1 1167.3 568.3 1166.8 568.3C1166 568.3 1165.2 567.7 1164.8 566.9C1164.5 566.1 1164.7 565.3 1165.3 564.8C1168.1 562.1 1171.8 560.7 1175.7 560.7C1179.5 560.7 1183.1 562.2 1185.8 564.8C1188.6 567.5 1190.1 571.1 1190.2 574.9C1190.2 578.8 1188.7 582.6 1185.8 585.4C1185.6 585.7 1185.1 585.9 1184.5 585.9Z" fill="#080522"/>
<path d="M1249.2 444.1L1224.4 481.3C1224 482 1224.4 482.9 1225.2 482.9H1274.8C1275.6 482.9 1276.1 482 1275.6 481.3L1250.7 444.1C1250.5 443.5 1249.6 443.5 1249.2 444.1Z" fill="#080522"/>
<path d="M1207.2 491.1C1224.4 491.1 1241.7 491.2 1258.9 491.2C1260.4 491.2 1260.4 488.8 1258.9 488.8C1241.7 488.8 1224.4 488.7 1207.2 488.7C1205.6 488.7 1205.6 491.1 1207.2 491.1Z" fill="#080522"/>
<path d="M1208.2 490.5C1216.8 477.6 1225.5 464.8 1234.1 451.9C1235 450.6 1232.9 449.4 1232 450.7C1223.4 463.6 1214.7 476.4 1206.1 489.3C1205.3 490.5 1207.3 491.7 1208.2 490.5Z" fill="#080522"/>
<path d="M1259.9 489.3C1251.3 476.4 1242.7 463.5 1234.1 450.6C1233.2 449.3 1231.2 450.5 1232 451.8C1240.6 464.7 1249.2 477.6 1257.8 490.5C1258.7 491.8 1260.8 490.6 1259.9 489.3Z" fill="#080522"/>
<path d="M1233.3 271.8C1250.5 271.8 1267.8 271.9 1285 271.9C1286.5 271.9 1286.5 269.5 1285 269.5C1267.8 269.5 1250.5 269.4 1233.3 269.4C1231.7 269.4 1231.7 271.8 1233.3 271.8Z" fill="#080522"/>
<path d="M1234.3 271.2C1242.9 258.3 1251.6 245.5 1260.2 232.6C1261.1 231.3 1259 230.1 1258.1 231.4C1249.5 244.3 1240.8 257.1 1232.2 270C1231.4 271.2 1233.5 272.4 1234.3 271.2Z" fill="#080522"/>
<path d="M1258.2 232.6C1266.8 245.5 1275.4 258.4 1284 271.3C1284.9 272.6 1286.9 271.4 1286.1 270.1C1277.5 257.2 1268.9 244.3 1260.3 231.4C1259.4 230.1 1257.3 231.3 1258.2 232.6Z" fill="#080522"/>
<path d="M1300.7 270C1292.1 257.1 1283.5 244.2 1274.9 231.3C1274 230 1272 231.2 1272.8 232.5C1281.4 245.4 1290 258.3 1298.6 271.2C1299.5 272.5 1301.6 271.3 1300.7 270Z" fill="#080522"/>
<path d="M1284.9 271.8C1289.8 271.8 1294.8 271.8 1299.7 271.8C1301.2 271.8 1301.2 269.4 1299.7 269.4C1294.8 269.4 1289.8 269.4 1284.9 269.4C1283.3 269.5 1283.3 271.8 1284.9 271.8Z" fill="#080522"/>
<path d="M1259.3 233.1C1264.2 233.1 1269 233.2 1273.9 233.2C1275.4 233.2 1275.4 230.8 1273.9 230.8C1269 230.8 1264.2 230.7 1259.3 230.7C1257.7 230.7 1257.7 233.1 1259.3 233.1Z" fill="#080522"/>
<path d="M1279.23 679.862C1277.53 692.662 1275.73 705.362 1273.53 718.062C1274.03 717.762 1274.53 717.462 1275.03 717.262C1262.03 713.562 1249.33 709.162 1236.53 704.762C1236.63 705.462 1236.73 706.262 1236.83 706.962C1251.53 698.362 1266.33 689.862 1281.03 681.262C1282.33 680.462 1281.13 678.462 1279.83 679.162C1265.13 687.762 1250.33 696.262 1235.63 704.862C1234.73 705.362 1234.93 706.762 1235.93 707.062C1248.73 711.462 1261.43 715.862 1274.43 719.562C1275.03 719.762 1275.83 719.362 1275.93 718.762C1278.13 706.062 1279.93 693.362 1281.63 680.562C1281.73 678.962 1279.43 678.362 1279.23 679.862Z" fill="#080522"/>
<path d="M1235.03 705.562C1233.73 709.062 1232.93 713.062 1232.03 716.662C1231.73 718.162 1234.03 718.762 1234.33 717.262C1235.13 713.562 1235.93 709.662 1237.33 706.162C1237.83 704.762 1235.53 704.162 1235.03 705.562Z" fill="#080522"/>
<path d="M1273.53 718.062C1272.23 721.562 1270.83 724.962 1269.33 728.362C1268.73 729.762 1271.03 730.362 1271.63 728.962C1273.03 725.562 1274.53 722.162 1275.83 718.662C1276.33 717.262 1274.03 716.562 1273.53 718.062Z" fill="#080522"/>
<path d="M1270.83 727.462C1258.43 723.362 1245.93 719.862 1233.53 715.862C1232.03 715.362 1231.43 717.662 1232.93 718.162C1245.33 722.162 1257.83 725.762 1270.23 729.762C1271.63 730.262 1272.23 727.962 1270.83 727.462Z" fill="#080522"/>
<path d="M1346.32 437.725C1354.32 437.725 1362.33 437.725 1370.43 437.725C1373.53 437.725 1373.53 432.925 1370.43 432.925C1362.43 432.925 1354.43 432.925 1346.32 432.925C1343.22 433.025 1343.22 437.725 1346.32 437.725Z" fill="#080522"/>
<path d="M1355.93 423.325C1355.93 431.325 1355.93 439.325 1355.93 447.425C1355.93 450.525 1360.73 450.525 1360.73 447.425C1360.73 439.425 1360.73 431.425 1360.73 423.325C1360.73 420.225 1355.93 420.225 1355.93 423.325Z" fill="#080522"/>
<path d="M1249.81 345.712C1244.51 351.012 1239.11 356.412 1233.81 361.712C1231.61 363.912 1235.01 367.312 1237.21 365.112C1242.51 359.812 1247.91 354.412 1253.21 349.112C1255.31 346.912 1251.91 343.512 1249.81 345.712Z" fill="#080522"/>
<path d="M1253.11 361.712C1247.81 356.412 1242.41 351.012 1237.11 345.712C1234.91 343.512 1231.51 346.912 1233.71 349.112C1239.01 354.412 1244.41 359.812 1249.71 365.112C1251.91 367.312 1255.31 363.912 1253.11 361.712Z" fill="#080522"/>
<path d="M1277.31 373.312C1272.01 378.612 1266.61 384.012 1261.31 389.312C1259.11 391.512 1262.51 394.912 1264.71 392.712C1270.01 387.412 1275.41 382.012 1280.71 376.712C1282.91 374.512 1279.51 371.112 1277.31 373.312Z" fill="#080522"/>
<path d="M1280.71 389.312C1275.41 384.012 1270.01 378.612 1264.71 373.312C1262.51 371.112 1259.11 374.512 1261.31 376.712C1266.61 382.012 1272.01 387.412 1277.31 392.712C1279.51 394.812 1282.91 391.512 1280.71 389.312Z" fill="#080522"/>
<path d="M731.812 290.712C726.512 296.012 721.112 301.412 715.812 306.712C713.612 308.912 717.012 312.312 719.212 310.112C724.512 304.812 729.912 299.412 735.212 294.112C737.312 291.912 733.912 288.512 731.812 290.712Z" fill="#080522"/>
<path d="M735.112 306.712C729.812 301.412 724.412 296.012 719.112 290.712C716.912 288.512 713.512 291.912 715.712 294.112C721.012 299.412 726.412 304.812 731.712 310.112C733.912 312.312 737.312 308.912 735.112 306.712Z" fill="#080522"/>
<path d="M759.312 318.312C754.012 323.612 748.612 329.012 743.312 334.312C741.112 336.512 744.512 339.912 746.712 337.712C752.012 332.412 757.412 327.012 762.712 321.712C764.912 319.512 761.512 316.112 759.312 318.312Z" fill="#080522"/>
<path d="M762.712 334.312C757.412 329.012 752.012 323.612 746.712 318.312C744.512 316.112 741.112 319.512 743.312 321.712C748.612 327.012 754.012 332.412 759.312 337.712C761.512 339.812 764.912 336.512 762.712 334.312Z" fill="#080522"/>
<path d="M-29.4123 369.998L6.85801 343.857C7.47809 343.342 7.41908 342.358 6.66988 342.078L-39.7804 324.684C-40.5296 324.404 -41.3134 325.071 -41.0906 325.902L-30.817 369.472C-30.7465 370.139 -29.9973 370.419 -29.4123 369.998Z" fill="#080522"/>
<path d="M2.36987 356.698C-13.7379 350.667 -29.9393 344.6 -46.047 338.568C-47.4518 338.042 -48.2934 340.29 -46.8887 340.816C-30.7809 346.848 -14.5795 352.914 1.52824 358.946C3.02663 359.507 3.86826 357.259 2.36987 356.698Z" fill="#080522"/>
<path d="M1.22283 356.91C-11.1443 365.413 -23.5701 373.787 -35.9373 382.29C-37.236 383.192 -35.6902 385.052 -34.3915 384.15C-22.0243 375.647 -9.59851 367.273 2.76867 358.77C4.03233 357.962 2.48649 356.101 1.22283 356.91Z" fill="#080522"/>
<path d="M9.12621 171.61C5.47387 170.242 2.13714 168.031 -0.579523 165.306C-8.65936 156.941 -9.99929 145.121 -4.08238 133.882L-4.04732 133.788C-4.01225 133.695 -3.97718 133.601 -3.94211 133.507C2.61879 122.83 15.6432 117.99 27.1736 121.987C27.3609 122.057 27.6419 122.163 27.8292 122.233C37.8497 125.985 44.3499 135.146 44.7413 146.078C45.1328 157.009 39.3087 166.574 29.5262 171.026C23.1605 173.768 15.6817 174.064 9.12621 171.61ZM26.4149 126.295C16.6754 122.648 5.45302 126.668 -0.230782 135.858C-3.73876 142.66 -4.52016 148.454 -2.59809 153.872C-0.558862 159.547 3.66855 164.227 8.88983 166.823C9.41666 167.127 9.97856 167.337 10.6341 167.583C20.8419 171.405 32.544 167.244 37.8533 157.914C43.7355 147.623 40.0304 133.849 29.646 127.932C28.6274 127.23 27.5387 126.716 26.4149 126.295Z" fill="#080522"/>
<path d="M9.98982 141.928C12.8084 137.537 18.1679 135.486 22.956 137.813C28.306 140.35 30.5214 147.267 27.235 152.336C24.4865 156.539 18.9513 158.204 14.2803 156.134C8.33336 153.48 7.46414 146.962 10.095 141.647C10.8083 140.312 8.56075 139.47 7.84744 140.805C4.8073 146.928 6.0045 153.996 12.1977 157.704C18.2037 161.341 26.454 158.984 29.7515 152.744C32.8152 146.844 30.5879 139.39 24.7577 136.139C18.7401 132.818 11.6368 134.963 8.04628 140.559C7.14567 141.824 9.08921 143.192 9.98982 141.928Z" fill="#080522"/>
<path d="M81.2345 2.77471C82.6532 8.11111 87.6059 11.9945 92.885 13.0102C98.8546 14.1778 104.061 11.1088 107.524 6.42551C109.816 3.43987 113.032 -3.15109 108.641 -5.96968C105.27 -8.08651 101.432 -5.25228 101.457 -1.61232C101.425 4.46213 109.069 6.57693 114.054 6.09467C120.117 5.5885 126.049 1.7233 128.656 -3.81399C130.445 -7.73573 130.279 -13.5643 125.292 -14.7908C120.025 -16.1226 117.09 -10.2808 119.21 -5.96302C122.092 0.0281111 130.064 2.69282 136.196 1.14494C142.867 -0.414894 147.358 -6.42124 148.011 -13.011C148.162 -14.556 145.798 -14.8006 145.646 -13.2556C144.726 -3.6695 134.348 2.37477 125.766 -2.6539C123.413 -4.06897 121.551 -5.94075 121.175 -8.64422C120.717 -12.5532 124.93 -13.5383 127.003 -10.5196C127.483 -9.80592 127.39 -8.1322 127.262 -7.21922C126.655 -2.74795 122.339 1.08137 118.325 2.67505C114.791 4.12805 101.858 4.73113 104.266 -2.26908C105.002 -4.23573 105.88 -4.86816 107.496 -3.19525C108.749 -1.97862 108.55 -0.87835 108.048 0.748763C107.44 2.65683 106.235 4.44814 104.948 5.88836C101.942 9.35422 97.9404 11.4863 93.2934 10.4937C89.1146 9.67637 84.8294 6.57682 83.692 2.20003C83.1062 0.912854 80.8475 1.24166 81.2345 2.77471Z" fill="#080522"/>
<path d="M226.307 77.6C222.207 68.5897 218.047 59.4508 213.947 50.4406C213.302 49.0247 211.114 50.0206 211.758 51.4365C215.859 60.4467 220.018 69.5856 224.119 78.5958C224.764 80.0117 226.952 79.0158 226.307 77.6Z" fill="#080522"/>
<path d="M227.891 59.3993C224.317 51.5476 220.802 43.8245 217.229 35.9728C216.584 34.5569 214.396 35.5528 215.04 36.9687C218.614 44.8204 222.129 52.5434 225.702 60.3952C226.347 61.8111 228.535 60.8152 227.891 59.3993Z" fill="#080522"/>
<path d="M-1.19986 72.0673C4.96048 55.901 11.0858 39.8283 17.1524 23.6269C17.6785 22.2222 15.4309 21.3806 14.9049 22.7853C8.74452 38.9517 2.61924 55.0243 -3.44744 71.2257C-3.97346 72.6305 -1.72587 73.4721 -1.19986 72.0673Z" fill="#080522"/>
<path d="M15.7365 24.2713C34.8411 31.4251 53.9456 38.5789 73.0501 45.7327C74.4549 46.2587 75.2965 44.0111 73.8917 43.4851C54.7872 36.3313 35.6827 29.1775 16.5781 22.0237C15.0797 21.4627 14.2381 23.7103 15.7365 24.2713Z" fill="#080522"/>
<path d="M72.3472 44.1881C66.2805 60.3895 60.2489 76.4972 54.1822 92.6986C53.6562 94.1034 55.9037 94.945 56.4298 93.5403C62.4964 77.3389 68.5281 61.2311 74.5947 45.0297C75.1208 43.625 72.8732 42.7834 72.3472 44.1881Z" fill="#080522"/>
<path d="M55.6916 92.0893C36.4934 84.9004 17.2952 77.7116 -1.90298 70.5227C-3.30773 69.9967 -4.14935 72.2443 -2.7446 72.7703C16.4536 79.9592 35.6517 87.148 54.8499 94.3369C56.3483 94.8979 57.1899 92.6504 55.6916 92.0893Z" fill="#080522"/>
<path d="M31.0888 17.2064C50.287 24.3952 69.3916 31.549 88.5898 38.7379C89.9945 39.2639 90.8361 37.0163 89.4314 36.4903C70.2332 29.3014 51.1286 22.1477 31.9304 14.9588C30.432 14.3977 29.5904 16.6453 31.0888 17.2064Z" fill="#080522"/>
<path d="M87.8868 37.1933C81.8201 53.3947 75.7885 69.5024 69.7218 85.7038C69.1958 87.1086 71.4434 87.9502 71.9694 86.5455C78.0361 70.3441 84.0677 54.2363 90.1344 38.0349C90.6955 36.5365 88.4479 35.6949 87.8868 37.1933Z" fill="#080522"/>
<path d="M26.0845 27.7191C31.2332 25.3758 36.2882 22.9975 41.4369 20.6542C42.8528 20.0098 41.8569 17.8216 40.441 18.466C35.2923 20.8093 30.2373 23.1876 25.0886 25.5309C23.6727 26.1753 24.6686 28.3635 26.0845 27.7191Z" fill="#080522"/>
<path d="M56.3482 94.0436C61.3681 91.7589 66.3881 89.4741 71.408 87.1894C72.8239 86.545 71.8281 84.3568 70.4122 85.0012C65.3922 87.286 60.3722 89.5706 55.3522 91.8554C53.9364 92.4998 54.9323 94.688 56.3482 94.0436Z" fill="#080522"/>
<path d="M74.0332 45.6737C79.1819 43.3304 84.237 40.9521 89.3857 38.6088C90.8016 37.9644 89.8057 35.7762 88.3898 36.4206C83.2411 38.7639 78.186 41.1422 73.0373 43.4855C71.6214 44.1299 72.6173 46.3181 74.0332 45.6737Z" fill="#080522"/>
<path d="M64.481 42.0968C69.6297 39.7535 74.6847 37.3752 79.8334 35.0319C81.2493 34.3875 80.2534 32.1993 78.8375 32.8437C73.6888 35.1869 68.6338 37.5653 63.4851 39.9086C62.0692 40.553 63.0651 42.7412 64.481 42.0968Z" fill="#080522"/>
<path d="M54.9287 38.5199C60.0774 36.1766 65.1325 33.7983 70.2812 31.455C71.697 30.8106 70.7011 28.6224 69.2853 29.2668C64.1366 31.6101 59.0815 33.9884 53.9328 36.3317C52.5169 36.9761 53.5129 39.1643 54.9287 38.5199Z" fill="#080522"/>
<path d="M45.2827 34.9079C50.4314 32.5647 55.4864 30.1863 60.6351 27.843C62.051 27.1986 61.0551 25.0104 59.6392 25.6548C54.4905 27.9981 49.4355 30.3765 44.2868 32.7197C42.9646 33.3992 43.9604 35.5874 45.2827 34.9079Z" fill="#080522"/>
<path d="M35.7305 31.3311C40.8792 28.9878 45.9342 26.6094 51.0829 24.2661C52.4988 23.6217 51.5029 21.4335 50.087 22.0779C44.9383 24.4212 39.8833 26.7996 34.7346 29.1429C33.3187 29.7873 34.3146 31.9755 35.7305 31.3311Z" fill="#080522"/>
<path d="M16.5323 24.1422C21.6809 21.7989 26.736 19.4206 31.8847 17.0773C33.3006 16.4329 32.3047 14.2447 30.8888 14.8891C25.7401 17.2323 20.685 19.6107 15.5364 21.954C14.1205 22.5984 15.1164 24.7866 16.5323 24.1422Z" fill="#080522"/>
<path d="M74.0005 75.1329C68.8518 77.4762 63.7382 79.7259 58.5895 82.0692C57.1736 82.7136 58.1695 84.9018 59.5854 84.2574C64.7341 81.9141 69.8477 79.6644 74.9964 77.3211C76.4123 76.6767 75.4164 74.4885 74.0005 75.1329Z" fill="#080522"/>
<path d="M77.5774 65.5807C72.4287 67.924 67.3151 70.1736 62.1664 72.5169C60.7505 73.1613 61.7464 75.3495 63.1623 74.7051C68.311 72.3618 73.4246 70.1122 78.5733 67.7689C79.9892 67.1245 78.9933 64.9363 77.5774 65.5807Z" fill="#080522"/>
<path d="M81.1543 56.0284C76.0056 58.3717 70.892 60.6213 65.7433 62.9646C64.3274 63.609 65.3233 65.7972 66.7392 65.1528C71.8879 62.8095 77.0015 60.5599 82.1502 58.2166C83.5661 57.5722 82.5702 55.384 81.1543 56.0284Z" fill="#080522"/>
<path d="M84.7312 46.4762C79.5825 48.8194 74.4689 51.0691 69.3202 53.4124C67.9043 54.0568 68.9002 56.245 70.3161 55.6005C75.4648 53.2573 80.5784 51.0076 85.7271 48.6643C87.143 48.0199 86.1471 45.8317 84.7312 46.4762Z" fill="#080522"/>
<path d="M227.356 263.578C232.424 263.447 237.104 260.074 237.581 254.807C237.989 249.727 233.96 244.801 228.892 244.078C223.508 243.343 218.453 247.43 217.847 252.756C217.265 258.304 221.89 263.346 227.356 263.578C228.936 263.636 229.087 261.236 227.601 261.213C223.715 261.04 220.261 257.717 220.282 253.668C220.315 249.302 224.305 245.777 228.741 246.477C232.264 247.049 235.426 250.582 235.264 254.152C235.149 258.167 231.498 261.071 227.601 261.213C225.986 261.249 225.741 263.614 227.356 263.578Z" fill="#080522"/>
<path d="M172.665 268.192C169.342 270.792 167.507 275.123 168.937 279.289C170.285 283.104 173.821 285.923 177.929 286.073C179.509 286.131 179.66 283.732 178.173 283.709C175.236 283.57 172.613 281.734 171.418 278.937C169.988 275.625 171.473 272.23 174.211 270.052C175.322 269.08 173.87 267.255 172.665 268.192Z" fill="#080522"/>
<path d="M177.929 286.073C179.006 286.049 180.082 286.026 181.077 285.651C181.686 285.451 182.177 284.995 182.013 284.292C181.907 283.719 181.263 283.157 180.655 283.357C179.824 283.579 178.993 283.802 178.174 283.709C177.542 283.686 176.957 284.108 176.898 284.833C176.817 285.337 177.297 286.05 177.929 286.073Z" fill="#080522"/>
<path d="M223.871 244.654C206.88 252.387 189.913 260.342 172.829 268.04C171.413 268.684 172.409 270.872 173.825 270.228C190.816 262.495 207.783 254.54 224.867 246.842C226.283 246.198 225.287 244.01 223.871 244.654Z" fill="#080522"/>
<path d="M231.498 260.217C214.507 267.95 197.423 275.647 180.432 283.38C179.016 284.025 180.012 286.213 181.428 285.568C198.419 277.836 215.503 270.138 232.494 262.405C233.816 261.726 232.914 259.572 231.498 260.217Z" fill="#080522"/>
<path d="M286.85 95.5719C288.759 99.5972 296.387 116.014 298.226 120.227C298.461 120.742 298.25 121.304 297.735 121.538C293.71 123.448 277.293 131.075 273.045 133.008C272.53 133.243 271.968 133.032 271.734 132.517C269.859 128.398 262.244 111.665 260.369 107.546C260.135 107.031 260.345 106.469 260.86 106.235C264.85 104.419 281.455 96.8619 285.574 94.9873C285.925 94.9052 286.58 95.1507 286.85 95.5719Z" fill="#080522"/>
<path d="M248.839 103.549C257.72 99.5067 266.695 95.4996 275.542 91.5511C276.958 90.9067 275.962 88.7185 274.546 89.3629C265.664 93.4051 256.689 97.4122 247.843 101.361C246.427 102.005 247.423 104.193 248.839 103.549Z" fill="#080522"/>
<path d="M274.043 90.99C278.027 99.7428 282.01 108.496 286.053 117.377C286.697 118.793 288.885 117.797 288.241 116.381C284.257 107.628 280.274 98.8756 276.231 89.9941C275.587 88.5782 273.399 89.5741 274.043 90.99Z" fill="#080522"/>
<path d="M286.555 115.75C277.674 119.792 268.792 123.834 259.911 127.876C258.495 128.521 259.491 130.709 260.907 130.065C269.788 126.022 278.669 121.98 287.551 117.938C288.967 117.294 287.971 115.106 286.555 115.75Z" fill="#080522"/>
<path d="M261.503 128.473C257.461 119.591 253.477 110.838 249.435 101.957C248.79 100.541 246.602 101.537 247.247 102.953C251.289 111.834 255.272 120.587 259.315 129.468C259.959 130.884 262.147 129.888 261.503 128.473Z" fill="#080522"/>
<path d="M69.8705 298.04C76.7119 286.613 89.8757 279.69 103.231 281.381C116.867 283.177 128.763 293.611 131.813 307.139C134.804 320.539 129.731 334.657 118.464 342.504C106.284 351.077 89.8045 350.886 77.9555 341.751C71.832 337.002 67.2993 330.286 65.5167 322.784C63.4643 314.007 66.0234 305.462 70.1044 297.7C70.8177 296.366 68.5701 295.524 67.8568 296.859C63.9511 304.152 61.5088 312.1 62.6598 320.433C63.7167 327.877 67.4771 334.944 72.7231 340.325C83.8942 351.556 101.194 354.404 115.318 347.199C127.99 340.732 135.72 327.503 135.105 313.177C134.489 297.997 124.113 284.929 109.691 280.383C93.9233 275.439 76.511 282.587 68.0557 296.613C67.12 297.971 69.0635 299.339 69.8705 298.04Z" fill="#080522"/>
<path d="M89.0121 309.372C92.3687 304.115 98.84 301.947 104.518 305.034C110.161 308.215 112.201 315.599 108.704 321.231C105.383 326.394 98.1035 328.153 92.9053 324.925C87.0867 321.358 86.3111 314.874 89.211 309.126C89.9243 307.791 87.6767 306.95 86.9634 308.284C83.3502 315.367 85.1332 323.723 92.5906 327.477C99.2401 330.821 107.689 328.218 111.221 321.639C114.752 315.06 112.337 306.681 105.828 302.962C99.225 299.208 91.162 301.635 87.1037 307.91C86.168 309.268 88.1115 310.636 89.0121 309.372Z" fill="#080522"/>
<path d="M75.6306 301.478C82.8698 289.56 98.0242 284.45 110.644 290.67C123.92 297.136 129.592 313.355 123.279 326.795C116.965 340.234 99.8911 345.907 86.6155 339.441C80.1182 336.261 74.989 330.282 72.6449 323.425C69.9843 315.701 72.0641 308.151 75.7359 301.197C76.4492 299.863 74.2016 299.021 73.4882 300.355C67.2673 312.121 67.5193 325.136 76.9927 335.197C85.705 344.439 99.5289 347.16 111.02 341.852C122.125 336.72 128.837 325.352 128.141 313.239C127.445 301.126 119.095 290.631 107.553 286.95C94.6643 282.871 80.5285 288.683 73.5584 300.168C72.8801 301.409 74.8237 302.778 75.6306 301.478Z" fill="#080522"/>
<path d="M82.1046 305.291C87.5545 296.44 98.8239 292.864 108.166 297.858C117.415 302.816 120.978 314.401 116.395 323.79C111.811 333.179 99.8984 337.047 90.4979 332.779C85.6748 330.546 81.9977 326.393 80.0876 321.513C77.9547 315.803 79.5204 310.196 82.2098 305.01C82.9231 303.675 80.6756 302.833 79.9623 304.168C75.3668 313.018 75.5821 322.709 82.7135 330.185C89.0837 336.842 99.197 338.92 107.657 335.147C125.35 327.25 124.53 301.209 106.327 294.499C96.4587 290.911 85.5759 295.165 80.1611 303.922C79.3541 305.222 81.2977 306.59 82.1046 305.291Z" fill="#080522"/>
<path d="M94.7722 312.81C96.047 310.832 98.364 309.777 100.705 310.654C103.386 311.764 104.499 315.064 103.014 317.605C101.704 319.677 98.9543 320.463 96.9056 319.375C94.1076 318.007 93.7433 314.988 95.0062 312.471C95.7195 311.136 93.4719 310.294 92.7586 311.629C90.9462 315.328 91.9314 319.541 95.6893 321.483C99.1077 323.19 103.555 321.865 105.262 318.447C107.063 315.063 105.761 310.839 102.413 308.944C98.9713 307.015 94.8754 308.257 92.8287 311.442C91.9632 312.613 93.8716 314.075 94.7722 312.81Z" fill="#080522"/>
<path d="M29.3101 286.589C28.5609 286.309 27.9871 285.56 27.893 284.67C27.8926 283.816 28.3604 283.137 29.1327 282.785C36.2708 279.692 41.1023 274.774 43.4283 268.277C45.8244 261.593 45.5283 254.114 42.5991 247.678C39.67 241.243 34.2837 236.236 27.541 233.711C20.7982 231.186 13.4831 231.33 6.95363 234.224C6.43876 234.458 5.90042 234.47 5.43217 234.295C4.68298 234.014 4.10911 233.266 4.01505 232.376C4.01465 231.522 4.48249 230.843 5.25479 230.491C12.779 227.222 21.1707 227.054 28.9437 229.965C36.8102 232.911 42.9927 238.643 46.2968 246.073C49.7532 253.667 49.9681 262.504 46.9288 270.335C44.1349 277.511 38.4846 283.191 30.703 286.577C30.3168 286.753 29.7784 286.765 29.3101 286.589Z" fill="#080522"/>
<path d="M22.4796 271.752C21.7304 271.471 21.1565 270.722 21.1561 269.868C21.1557 269.014 21.6236 268.334 22.3022 267.948C25.0053 266.718 26.9823 264.575 27.9641 261.953C28.911 259.424 28.7926 256.604 27.4922 254.088C26.3791 251.642 24.2949 249.794 21.6727 248.812C19.0505 247.83 16.1363 247.913 13.597 248.991C13.0821 249.226 12.5437 249.238 12.0755 249.062C11.3263 248.782 10.7875 247.939 10.6934 247.05C10.693 246.196 11.1609 245.516 11.8981 245.259C15.4671 243.712 19.4231 243.698 23.0754 245.066C26.6341 246.399 29.4795 249.066 31.0963 252.447C32.7716 255.958 32.914 259.855 31.6751 263.449C30.3074 267.101 27.5701 270.134 23.8724 271.739C23.5799 271.95 23.0415 271.962 22.4796 271.752Z" fill="#080522"/>
<path d="M132.797 161.645L96.5264 187.786C95.9064 188.301 95.9653 189.284 96.7145 189.565L143.165 206.958C143.914 207.239 144.698 206.571 144.475 205.741L134.201 162.171C134.225 161.539 133.382 161.223 132.797 161.645Z" fill="#080522"/>
<path d="M76.9819 190.932C93.0896 196.964 109.256 203.124 125.364 209.156C126.768 209.682 127.61 207.434 126.205 206.908C110.098 200.876 93.9313 194.716 77.8235 188.685C76.3251 188.123 75.4835 190.371 76.9819 190.932Z" fill="#080522"/>
<path d="M78.1287 190.721C90.7063 181.656 103.342 172.72 115.92 163.655C117.219 162.753 115.673 160.893 114.374 161.794C101.797 170.859 89.1605 179.796 76.5829 188.861C75.4129 189.704 76.8651 191.529 78.1287 190.721Z" fill="#080522"/>
<path d="M126.966 207.727C123.436 192.63 119.906 177.534 116.376 162.437C115.989 160.904 113.695 161.327 113.989 162.825C117.519 177.921 121.049 193.018 124.579 208.114C124.966 209.647 127.353 209.26 126.966 207.727Z" fill="#080522"/>
<path d="M178.328 -5.28905C194.436 0.742567 210.602 6.90291 226.71 12.9345C228.115 13.4605 228.956 11.2129 227.551 10.6869C211.444 4.65531 195.277 -1.50503 179.17 -7.53665C177.671 -8.09773 176.83 -5.85013 178.328 -5.28905Z" fill="#080522"/>
<path d="M179.475 -5.50027C192.052 -14.5653 204.689 -23.5015 217.266 -32.5666C218.565 -33.4684 217.019 -35.3286 215.72 -34.4268C203.143 -25.3618 190.507 -16.4255 177.929 -7.36047C176.759 -6.51722 178.305 -4.65701 179.475 -5.50027Z" fill="#080522"/>
<path d="M215.393 -33.2679C218.923 -18.1713 222.454 -3.07466 225.984 12.022C226.371 13.555 228.664 13.1326 228.371 11.6346C224.841 -3.46206 221.311 -18.5587 217.781 -33.6553C217.394 -35.1883 215.006 -34.801 215.393 -33.2679Z" fill="#080522"/>
<path d="M242.079 16.6608C238.549 1.56419 235.019 -13.5324 231.489 -28.629C231.102 -30.1621 228.808 -29.7397 229.101 -28.2417C232.631 -13.1451 236.161 1.95155 239.692 17.0482C240.079 18.5812 242.466 18.1939 242.079 16.6608Z" fill="#080522"/>
<path d="M226.651 12.8058C231.24 14.5241 235.923 16.2775 240.511 17.9958C241.916 18.5218 242.758 16.2742 241.353 15.7482C236.764 14.0299 232.082 12.2765 227.493 10.5582C225.959 10.0908 225.153 12.2447 226.651 12.8058Z" fill="#080522"/>
<path d="M78.2407 392.966C72.16 404.357 66.0207 415.619 59.5068 426.741C60.0803 426.635 60.6537 426.53 61.1921 426.518C50.3152 418.494 39.9646 409.92 29.5204 401.311C29.3686 402.001 29.1817 402.785 29.0299 403.476C45.8122 400.577 62.6531 397.807 79.4354 394.908C80.9334 394.615 80.511 392.321 79.048 392.52C62.2657 395.419 45.4248 398.19 28.6425 401.089C27.6243 401.241 27.3207 402.622 28.152 403.254C38.5962 411.863 48.9467 420.437 59.8237 428.461C60.3154 428.859 61.2049 428.765 61.509 428.238C68.0228 417.116 74.1621 405.854 80.2428 394.463C80.8975 392.999 78.954 391.631 78.2407 392.966Z" fill="#080522"/>
<path d="M27.8351 401.534C25.3902 404.356 23.2383 407.821 21.1331 410.877C20.3261 412.176 22.2696 413.545 23.0766 412.245C25.1233 409.061 27.2401 405.689 29.7786 402.902C30.7378 401.766 28.7943 400.398 27.8351 401.534Z" fill="#080522"/>
<path d="M59.5067 426.741C57.0619 429.563 54.5585 432.256 51.9615 434.914C50.9086 436.015 52.8522 437.383 53.905 436.282C56.4084 433.589 59.0054 430.931 61.4502 428.109C62.4094 426.974 60.501 425.512 59.5067 426.741Z" fill="#080522"/>
<path d="M53.6818 434.597C43.507 426.409 33.0282 418.748 22.8183 410.654C21.5889 409.659 20.2205 411.603 21.4499 412.597C31.6597 420.692 42.1035 428.446 52.3134 436.541C53.4491 437.5 54.8176 435.556 53.6818 434.597Z" fill="#080522"/>
<path d="M225.99 189.734C233.482 192.54 240.974 195.345 248.559 198.186C251.462 199.273 253.146 194.777 250.242 193.69C242.75 190.885 235.258 188.08 227.673 185.239C224.735 184.246 223.086 188.647 225.99 189.734Z" fill="#080522"/>
<path d="M240.03 179.615C237.224 187.107 234.419 194.599 231.578 202.185C230.491 205.088 234.986 206.771 236.074 203.868C238.879 196.376 241.684 188.884 244.525 181.298C245.612 178.395 241.117 176.712 240.03 179.615Z" fill="#080522"/>
<path d="M167.872 69.7197C161.05 72.8246 154.099 75.988 147.277 79.0929C144.446 80.3817 146.437 84.7581 149.269 83.4693C156.091 80.3644 163.042 77.201 169.864 74.0961C172.602 72.7722 170.61 68.3959 167.872 69.7197Z" fill="#080522"/>
<path d="M165.352 85.8609C162.247 79.0389 159.084 72.0882 155.979 65.2661C154.69 62.4344 150.313 64.4262 151.602 67.258C154.707 74.08 157.871 81.0307 160.975 87.8527C162.264 90.6845 166.641 88.6927 165.352 85.8609Z" fill="#080522"/>
<path d="M183.947 105.211C177.125 108.315 170.174 111.479 163.352 114.584C160.521 115.873 162.512 120.249 165.344 118.96C172.166 115.855 179.117 112.692 185.939 109.587C188.771 108.298 186.779 103.922 183.947 105.211Z" fill="#080522"/>
<path d="M181.521 121.387C178.416 114.565 175.252 107.614 172.147 100.792C170.859 97.9603 166.482 99.9521 167.771 102.784C170.876 109.606 174.039 116.557 177.144 123.379C178.468 126.117 182.809 124.219 181.521 121.387Z" fill="#080522"/>
</g>
</svg>
