<svg width="1400" height="379" viewBox="0 0 1400 379" fill="none" xmlns="http://www.w3.org/2000/svg">
<g opacity="0.1">
<path d="M863.931 248.807C877.031 251.207 888.131 261.107 891.231 274.207C894.331 287.607 888.731 302.407 877.131 310.007C865.631 317.507 850.631 317.707 839.331 309.907C827.031 301.507 821.431 286.007 825.831 271.707C828.131 264.307 832.831 257.707 839.231 253.407C846.731 248.407 855.631 247.807 864.331 248.907C865.831 249.107 865.831 246.707 864.331 246.507C856.131 245.407 847.831 245.907 840.431 249.907C833.831 253.507 828.531 259.507 825.331 266.307C818.731 280.707 822.131 297.907 833.831 308.607C844.331 318.207 859.431 320.807 872.631 315.207C886.631 309.307 895.231 295.007 894.431 279.907C893.431 263.307 880.631 249.507 864.531 246.507C863.031 246.207 862.331 248.507 863.931 248.807Z" fill="#080522"/>
<path d="M860.831 265.807C868.731 267.407 874.831 274.207 874.531 282.507C874.231 291.607 866.431 298.807 857.231 298.407C848.331 298.007 841.231 290.107 841.531 281.307C841.631 276.907 843.631 272.707 846.731 269.707C850.731 265.907 855.731 265.207 861.031 265.907C862.531 266.107 862.531 263.707 861.031 263.507C850.231 262.207 840.331 268.507 839.131 279.907C838.031 290.107 845.731 299.707 855.931 300.807C866.031 301.807 875.331 294.507 876.631 284.507C877.931 274.507 871.031 265.607 861.331 263.607C860.031 263.207 859.331 265.507 860.831 265.807Z" fill="#080522"/>
<path d="M862.331 257.607C874.831 260.007 884.031 271.107 882.931 284.007C881.731 297.507 869.731 307.607 856.231 306.707C842.631 305.707 832.131 293.007 833.331 279.507C833.931 272.807 837.331 266.507 842.531 262.207C848.331 257.407 855.431 256.707 862.731 257.607C864.231 257.807 864.231 255.407 862.731 255.207C850.231 253.607 838.831 258.407 833.431 270.307C828.531 280.907 831.031 293.507 839.431 301.507C856.931 318.207 886.731 304.707 885.431 280.407C884.831 267.907 875.231 257.607 863.031 255.307C861.431 255.007 860.831 257.307 862.331 257.607Z" fill="#080522"/>
<path d="M859.831 272.707C859.731 272.707 859.631 272.707 859.531 272.707C854.131 272.107 849.331 275.207 848.631 280.907C848.031 286.007 851.831 290.907 856.931 291.507C861.931 292.107 866.631 288.507 867.431 283.507C868.331 278.307 864.831 273.807 859.831 272.707Z" fill="#080522"/>
<path d="M842.356 168.056C848.756 174.456 855.156 180.856 861.456 187.156C862.556 188.256 864.256 186.556 863.156 185.456C856.756 179.056 850.356 172.656 844.056 166.356C842.956 165.256 841.256 166.956 842.356 168.056Z" fill="#080522"/>
<path d="M858.256 169.656C866.256 177.656 874.256 185.656 882.356 193.756C883.456 194.856 885.156 193.156 884.056 192.056C876.056 184.056 868.056 176.056 859.956 167.956C858.856 166.856 857.156 168.556 858.256 169.656Z" fill="#080522"/>
<path d="M1176.88 396.8C1172.98 396.8 1169.08 395.9 1165.58 394.3C1155.08 389.3 1149.68 378.7 1151.28 366.1V366C1151.28 365.9 1151.28 365.8 1151.28 365.7C1153.68 353.4 1164.18 344.3 1176.38 344C1176.58 344 1176.88 344 1177.08 344C1187.78 344 1197.08 350.3 1201.28 360.4C1205.48 370.5 1203.38 381.5 1195.78 389.1C1190.78 393.9 1183.88 396.8 1176.88 396.8ZM1177.18 348.3C1166.78 348.3 1157.68 356 1155.58 366.6C1154.68 374.2 1155.98 379.9 1159.68 384.3C1163.58 388.9 1169.18 391.8 1174.98 392.4C1175.58 392.5 1176.18 392.5 1176.88 392.5C1187.78 392.5 1197.28 384.5 1198.98 373.9C1200.88 362.2 1192.58 350.6 1180.78 348.7C1179.58 348.4 1178.38 348.3 1177.18 348.3Z" fill="#080522"/>
<path d="M1167.28 368.7C1168.38 363.6 1172.68 359.8 1177.98 360.3C1183.88 360.8 1188.38 366.5 1187.08 372.4C1185.98 377.3 1181.38 380.8 1176.28 380.5C1169.78 380.1 1166.68 374.3 1167.28 368.4C1167.48 366.9 1165.08 366.9 1164.88 368.4C1164.18 375.2 1167.78 381.4 1174.88 382.7C1181.78 384 1188.68 378.9 1189.58 371.9C1190.38 365.3 1185.68 359.1 1179.08 358.1C1172.28 357.1 1166.38 361.6 1164.98 368.1C1164.58 369.6 1166.88 370.2 1167.28 368.7Z" fill="#080522"/>
<path d="M778.62 345.2L760.82 371.9C760.42 372.6 760.82 373.5 761.62 373.5H797.22C798.02 373.5 798.52 372.6 798.02 371.9L780.22 345.2C779.82 344.6 779.02 344.7 778.62 345.2Z" fill="#080522"/>
<path d="M826.22 344C813.52 344 800.82 344 788.12 344C786.62 344 786.62 346.4 788.12 346.4C800.82 346.4 813.52 346.4 826.22 346.4C827.72 346.4 827.72 344 826.22 344Z" fill="#080522"/>
<path d="M825.12 344.6C818.72 353.6 812.42 362.7 806.02 371.7C805.12 373 807.22 374.2 808.12 372.9C814.52 363.9 820.82 354.8 827.22 345.8C828.12 344.5 826.02 343.3 825.12 344.6Z" fill="#080522"/>
<path d="M787.02 345.8C793.32 354.8 799.62 363.9 806.02 372.9C806.92 374.1 809.02 373 808.12 371.7C801.82 362.7 795.52 353.6 789.12 344.6C788.22 343.3 786.12 344.5 787.02 345.8Z" fill="#080522"/>
<path d="M772.319 344C759.619 344 746.919 344 734.219 344C732.719 344 732.719 346.4 734.219 346.4C746.919 346.4 759.619 346.4 772.319 346.4C773.919 346.4 773.919 344 772.319 344Z" fill="#080522"/>
<path d="M771.32 344.6C764.92 353.6 758.62 362.7 752.22 371.7C751.32 373 753.42 374.2 754.32 372.9C760.72 363.9 767.02 354.8 773.42 345.8C774.32 344.5 772.22 343.3 771.32 344.6Z" fill="#080522"/>
<path d="M733.22 345.8C739.52 354.8 745.82 363.9 752.22 372.9C753.12 374.1 755.22 373 754.32 371.7C748.02 362.7 741.72 353.6 735.32 344.6C734.42 343.3 732.32 344.5 733.22 345.8Z" fill="#080522"/>
<path d="M676.037 289.148C677.037 283.148 681.437 277.948 687.137 275.948C692.837 273.948 699.537 275.249 704.037 279.249C708.537 283.249 710.637 289.748 709.437 295.648C708.137 301.548 703.537 306.548 697.737 308.348C695.037 309.248 692.037 309.348 689.237 308.848C684.837 307.948 680.837 305.348 678.237 301.648C675.737 297.948 675.337 293.648 676.037 289.148Z" fill="#080522"/>
<path d="M659.537 289.649C661.037 282.549 667.037 277.049 674.537 277.449C683.037 277.849 689.437 285.649 688.337 294.049C687.237 301.849 679.937 307.449 672.137 306.649C663.137 305.649 658.537 297.849 659.537 289.349C659.737 287.849 657.337 287.849 657.137 289.349C656.037 299.049 661.637 308.049 671.937 309.049C680.937 309.949 689.437 303.349 690.737 294.349C691.937 285.049 685.337 276.349 676.037 275.149C667.037 273.949 659.037 280.149 657.237 288.949C656.937 290.549 659.237 291.249 659.537 289.649Z" fill="#080522"/>
<path d="M1185.2 213.4C1188.4 217.9 1194.4 219.8 1199.7 218.9C1205.7 217.9 1209.5 213.2 1211.1 207.6C1212.2 204 1212.9 196.7 1207.8 195.6C1203.9 194.8 1201.3 198.8 1202.6 202.2C1204.7 207.9 1212.6 207.2 1217.1 205C1222.6 202.4 1226.8 196.7 1227.3 190.6C1227.6 186.3 1225.4 180.9 1220.3 181.5C1214.9 182.1 1214.2 188.6 1217.7 191.9C1222.5 196.5 1230.9 196.2 1236.1 192.6C1241.8 188.8 1243.9 181.6 1242.2 175.2C1241.8 173.7 1239.5 174.3 1239.9 175.8C1242.4 185.1 1234.8 194.4 1225 192.7C1222.3 192.2 1219.9 191.1 1218.6 188.7C1216.8 185.2 1220.4 182.8 1223.4 184.9C1224.1 185.4 1224.6 187 1224.8 187.9C1225.8 192.3 1223.1 197.4 1219.9 200.3C1217.1 202.9 1205.2 208 1205 200.6C1205 198.5 1205.6 197.6 1207.7 198.6C1209.3 199.3 1209.5 200.4 1209.6 202.1C1209.7 204.1 1209.2 206.2 1208.5 208C1206.9 212.3 1203.9 215.7 1199.2 216.4C1195 217.1 1189.9 215.7 1187.3 212C1186.3 211 1184.3 212.1 1185.2 213.4Z" fill="#080522"/>
<path d="M1347.3 232.601C1340.3 225.601 1333.2 218.501 1326.2 211.501C1325.1 210.401 1323.4 212.101 1324.5 213.201C1331.5 220.201 1338.6 227.301 1345.6 234.301C1346.7 235.401 1348.4 233.701 1347.3 232.601Z" fill="#080522"/>
<path d="M1342.4 215C1336.3 208.9 1330.3 202.9 1324.2 196.8C1323.1 195.7 1321.4 197.4 1322.5 198.5C1328.6 204.6 1334.6 210.6 1340.7 216.7C1341.8 217.8 1343.5 216.1 1342.4 215Z" fill="#080522"/>
<path d="M1132.3 307.2C1132.4 289.9 1132.5 272.7 1132.5 255.4C1132.5 253.9 1130.1 253.9 1130.1 255.4C1130 272.7 1129.9 289.9 1129.9 307.2C1129.9 308.7 1132.3 308.7 1132.3 307.2Z" fill="#080522"/>
<path d="M1131.4 256.5C1151.8 256.5 1172.2 256.5 1192.6 256.5C1194.1 256.5 1194.1 254.1 1192.6 254.1C1172.2 254.1 1151.8 254.1 1131.4 254.1C1129.8 254.1 1129.8 256.5 1131.4 256.5Z" fill="#080522"/>
<path d="M1191.4 255.3C1191.4 272.6 1191.4 289.8 1191.4 307.1C1191.4 308.6 1193.8 308.6 1193.8 307.1C1193.8 289.8 1193.8 272.6 1193.8 255.3C1193.8 253.8 1191.4 253.8 1191.4 255.3Z" fill="#080522"/>
<path d="M1192.6 306C1172.1 306 1151.6 306 1131.1 306C1129.6 306 1129.6 308.4 1131.1 308.4C1151.6 308.4 1172.1 308.4 1192.6 308.4C1194.2 308.4 1194.2 306 1192.6 306Z" fill="#080522"/>
<path d="M1143.3 244.5C1163.8 244.5 1184.2 244.5 1204.7 244.5C1206.2 244.5 1206.2 242.1 1204.7 242.1C1184.2 242.1 1163.8 242.1 1143.3 242.1C1141.7 242.1 1141.7 244.5 1143.3 244.5Z" fill="#080522"/>
<path d="M1203.5 243.3C1203.5 260.6 1203.5 277.8 1203.5 295.1C1203.5 296.6 1205.9 296.6 1205.9 295.1C1205.9 277.8 1205.9 260.6 1205.9 243.3C1205.9 241.7 1203.5 241.7 1203.5 243.3Z" fill="#080522"/>
<path d="M1142.3 256.1C1146.3 252.1 1150.2 248.1 1154.2 244.1C1155.3 243 1153.6 241.3 1152.5 242.4C1148.5 246.4 1144.6 250.4 1140.6 254.4C1139.5 255.5 1141.2 257.2 1142.3 256.1Z" fill="#080522"/>
<path d="M1193.9 307.6C1197.8 303.7 1201.7 299.8 1205.6 295.9C1206.7 294.8 1205 293.1 1203.9 294.2C1200 298.1 1196.1 302 1192.2 305.9C1191.1 307 1192.8 308.7 1193.9 307.6Z" fill="#080522"/>
<path d="M1193.5 256.1C1197.5 252.1 1201.4 248.1 1205.4 244.1C1206.5 243 1204.8 241.3 1203.7 242.4C1199.7 246.4 1195.8 250.4 1191.8 254.4C1190.7 255.5 1192.4 257.2 1193.5 256.1Z" fill="#080522"/>
<path d="M1183.3 256.1C1187.3 252.1 1191.2 248.1 1195.2 244.1C1196.3 243 1194.6 241.3 1193.5 242.4C1189.5 246.4 1185.6 250.4 1181.6 254.4C1180.5 255.5 1182.2 257.2 1183.3 256.1Z" fill="#080522"/>
<path d="M1173.1 256.1C1177.1 252.1 1181 248.1 1185 244.1C1186.1 243 1184.4 241.3 1183.3 242.4C1179.3 246.4 1175.4 250.4 1171.4 254.4C1170.3 255.5 1172 257.2 1173.1 256.1Z" fill="#080522"/>
<path d="M1162.8 256.1C1166.8 252.1 1170.7 248.1 1174.7 244.1C1175.8 243 1174.1 241.3 1173 242.4C1169 246.4 1165.1 250.4 1161.1 254.4C1160.1 255.5 1161.8 257.2 1162.8 256.1Z" fill="#080522"/>
<path d="M1152.6 256.1C1156.6 252.1 1160.5 248.1 1164.5 244.1C1165.6 243 1163.9 241.3 1162.8 242.4C1158.8 246.4 1154.9 250.4 1150.9 254.4C1149.8 255.5 1151.5 257.2 1152.6 256.1Z" fill="#080522"/>
<path d="M1132.1 256.1C1136.1 252.1 1140 248.1 1144 244.1C1145.1 243 1143.4 241.3 1142.3 242.4C1138.3 246.4 1134.4 250.4 1130.4 254.4C1129.3 255.5 1131 257.2 1132.1 256.1Z" fill="#080522"/>
<path d="M1203.8 283.7C1199.8 287.7 1195.8 291.6 1191.8 295.6C1190.7 296.7 1192.4 298.4 1193.5 297.3C1197.5 293.3 1201.5 289.4 1205.5 285.4C1206.6 284.3 1204.9 282.6 1203.8 283.7Z" fill="#080522"/>
<path d="M1203.8 273.5C1199.8 277.5 1195.8 281.4 1191.8 285.4C1190.7 286.5 1192.4 288.2 1193.5 287.1C1197.5 283.1 1201.5 279.2 1205.5 275.2C1206.6 274.1 1204.9 272.4 1203.8 273.5Z" fill="#080522"/>
<path d="M1203.8 263.3C1199.8 267.3 1195.8 271.2 1191.8 275.2C1190.7 276.3 1192.4 278 1193.5 276.9C1197.5 272.9 1201.5 269 1205.5 265C1206.6 263.9 1204.9 262.2 1203.8 263.3Z" fill="#080522"/>
<path d="M1203.8 253.1C1199.8 257.1 1195.8 261 1191.8 265C1190.7 266.1 1192.4 267.8 1193.5 266.7C1197.5 262.7 1201.5 258.8 1205.5 254.8C1206.6 253.7 1204.9 252 1203.8 253.1Z" fill="#080522"/>
<path d="M1410.3 228.2C1413.5 231.3 1426.4 244 1429.6 247.3C1430 247.7 1430 248.3 1429.6 248.7C1426.5 251.9 1413.8 264.8 1410.5 268.1C1410.1 268.5 1409.5 268.5 1409.1 268.1C1405.9 264.9 1392.9 251.9 1389.7 248.7C1389.3 248.3 1389.3 247.7 1389.7 247.3C1392.8 244.2 1405.7 231.3 1408.9 228.1C1409.2 227.9 1409.9 227.9 1410.3 228.2Z" fill="#080522"/>
<path d="M1377.5 249C1384.4 242.1 1391.4 235.2 1398.3 228.4C1399.4 227.3 1397.7 225.6 1396.6 226.7C1389.7 233.6 1382.7 240.5 1375.8 247.3C1374.7 248.4 1376.4 250.1 1377.5 249Z" fill="#080522"/>
<path d="M1396.7 228.4C1403.5 235.2 1410.3 242 1417.2 248.9C1418.3 250 1420 248.3 1418.9 247.2C1412.1 240.4 1405.3 233.6 1398.4 226.7C1397.3 225.6 1395.6 227.3 1396.7 228.4Z" fill="#080522"/>
<path d="M1417.1 247.2C1410.2 254.1 1403.3 261 1396.4 267.9C1395.3 269 1397 270.7 1398.1 269.6C1405 262.7 1411.9 255.8 1418.8 248.9C1419.9 247.8 1418.2 246.1 1417.1 247.2Z" fill="#080522"/>
<path d="M1398.1 267.9C1391.2 261 1384.4 254.2 1377.5 247.3C1376.4 246.2 1374.7 247.9 1375.8 249C1382.7 255.9 1389.5 262.7 1396.4 269.6C1397.5 270.7 1399.2 269 1398.1 267.9Z" fill="#080522"/>
<path d="M1289.2 344.1L1264.4 381.3C1264 382 1264.4 382.9 1265.2 382.9H1314.8C1315.6 382.9 1316.1 382 1315.6 381.3L1290.7 344.1C1290.5 343.5 1289.6 343.5 1289.2 344.1Z" fill="#080522"/>
<path d="M1248.2 390.501C1256.8 377.601 1265.5 364.801 1274.1 351.901C1275 350.601 1272.9 349.401 1272 350.701C1263.4 363.601 1254.7 376.401 1246.1 389.301C1245.3 390.501 1247.3 391.701 1248.2 390.501Z" fill="#080522"/>
<path d="M1299.9 389.3C1291.3 376.4 1282.7 363.5 1274.1 350.6C1273.2 349.3 1271.2 350.5 1272 351.8C1280.6 364.7 1289.2 377.6 1297.8 390.5C1298.7 391.8 1300.8 390.6 1299.9 389.3Z" fill="#080522"/>
<path d="M1273.3 171.8C1290.5 171.8 1307.8 171.9 1325 171.9C1326.5 171.9 1326.5 169.5 1325 169.5C1307.8 169.5 1290.5 169.4 1273.3 169.4C1271.7 169.4 1271.7 171.8 1273.3 171.8Z" fill="#080522"/>
<path d="M1274.3 171.2C1282.9 158.3 1291.6 145.5 1300.2 132.6C1301.1 131.3 1299 130.1 1298.1 131.4C1289.5 144.3 1280.8 157.1 1272.2 170C1271.4 171.2 1273.5 172.4 1274.3 171.2Z" fill="#080522"/>
<path d="M1298.2 132.6C1306.8 145.5 1315.4 158.4 1324 171.3C1324.9 172.6 1326.9 171.4 1326.1 170.1C1317.5 157.2 1308.9 144.3 1300.3 131.4C1299.4 130.1 1297.3 131.3 1298.2 132.6Z" fill="#080522"/>
<path d="M1340.7 170C1332.1 157.1 1323.5 144.2 1314.9 131.3C1314 130 1312 131.2 1312.8 132.5C1321.4 145.4 1330 158.3 1338.6 171.2C1339.5 172.5 1341.6 171.3 1340.7 170Z" fill="#080522"/>
<path d="M1324.9 171.8C1329.8 171.8 1334.8 171.8 1339.7 171.8C1341.2 171.8 1341.2 169.4 1339.7 169.4C1334.8 169.4 1329.8 169.4 1324.9 169.4C1323.3 169.5 1323.3 171.8 1324.9 171.8Z" fill="#080522"/>
<path d="M1299.3 133.1C1304.2 133.1 1309 133.2 1313.9 133.2C1315.4 133.2 1315.4 130.8 1313.9 130.8C1309 130.8 1304.2 130.7 1299.3 130.7C1297.7 130.7 1297.7 133.1 1299.3 133.1Z" fill="#080522"/>
<path d="M1386.32 337.725C1394.32 337.725 1402.33 337.725 1410.43 337.725C1413.53 337.725 1413.53 332.925 1410.43 332.925C1402.43 332.925 1394.43 332.925 1386.32 332.925C1383.22 333.025 1383.22 337.725 1386.32 337.725Z" fill="#080522"/>
<path d="M1395.93 323.325C1395.93 331.325 1395.93 339.325 1395.93 347.425C1395.93 350.525 1400.73 350.525 1400.73 347.425C1400.73 339.425 1400.73 331.425 1400.73 323.325C1400.73 320.225 1395.93 320.225 1395.93 323.325Z" fill="#080522"/>
<path d="M1289.81 245.712C1284.51 251.012 1279.11 256.412 1273.81 261.712C1271.61 263.912 1275.01 267.312 1277.21 265.112C1282.51 259.812 1287.91 254.412 1293.21 249.112C1295.31 246.912 1291.91 243.512 1289.81 245.712Z" fill="#080522"/>
<path d="M1293.11 261.712C1287.81 256.412 1282.41 251.012 1277.11 245.712C1274.91 243.512 1271.51 246.912 1273.71 249.112C1279.01 254.412 1284.41 259.812 1289.71 265.112C1291.91 267.312 1295.31 263.912 1293.11 261.712Z" fill="#080522"/>
<path d="M1317.31 273.312C1312.01 278.612 1306.61 284.012 1301.31 289.312C1299.11 291.512 1302.51 294.912 1304.71 292.712C1310.01 287.412 1315.41 282.012 1320.71 276.712C1322.91 274.512 1319.51 271.112 1317.31 273.312Z" fill="#080522"/>
<path d="M1320.71 289.312C1315.41 284.012 1310.01 278.612 1304.71 273.312C1302.51 271.112 1299.11 274.512 1301.31 276.712C1306.61 282.012 1312.01 287.412 1317.31 292.712C1319.51 294.812 1322.91 291.512 1320.71 289.312Z" fill="#080522"/>
<path d="M771.812 190.712C766.512 196.012 761.112 201.412 755.812 206.712C753.612 208.912 757.012 212.312 759.212 210.112C764.512 204.812 769.912 199.412 775.212 194.112C777.312 191.912 773.912 188.512 771.812 190.712Z" fill="#080522"/>
<path d="M775.112 206.712C769.812 201.412 764.412 196.012 759.112 190.712C756.912 188.512 753.512 191.912 755.712 194.112C761.012 199.412 766.412 204.812 771.712 210.112C773.912 212.312 777.312 208.912 775.112 206.712Z" fill="#080522"/>
<path d="M799.312 218.312C794.012 223.612 788.612 229.012 783.312 234.312C781.112 236.512 784.512 239.912 786.712 237.712C792.012 232.412 797.412 227.012 802.712 221.712C804.912 219.512 801.512 216.112 799.312 218.312Z" fill="#080522"/>
<path d="M802.712 234.312C797.412 229.012 792.012 223.612 786.712 218.312C784.512 216.112 781.112 219.512 783.312 221.712C788.612 227.012 794.012 232.412 799.312 237.712C801.512 239.812 804.912 236.512 802.712 234.312Z" fill="#080522"/>
<path d="M9.02954 76.0067C0.539924 91.8347 -7.94969 107.663 -17.1534 123.117C-16.58 123.011 -16.0065 122.905 -15.4331 122.8C-30.5952 111.676 -45.0907 99.6281 -59.6212 87.6734C-59.773 88.3641 -59.9599 89.1483 -60.1118 89.8389C-36.6704 85.6962 -13.2406 81.8694 10.2594 77.8554C11.7574 77.5621 11.37 75.1746 9.87199 75.4679C-13.628 79.482 -37.0578 83.3087 -60.4991 87.4515C-61.5524 87.6978 -61.821 88.9854 -60.9897 89.617C-46.4591 101.572 -31.9637 113.62 -16.8015 124.743C-16.3098 125.141 -15.514 125.012 -15.0812 124.426C-5.97109 108.938 2.61217 93.1446 11.1018 77.3166C11.6864 76.0405 9.77792 74.5785 9.02954 76.0067Z" fill="#080522"/>
<path d="M10.5877 269.998L46.858 243.857C47.4781 243.342 47.4191 242.359 46.6699 242.078L0.219637 224.685C-0.529561 224.404 -1.31342 225.072 -1.09065 225.903L9.183 269.472C9.25354 270.139 10.0027 270.42 10.5877 269.998Z" fill="#080522"/>
<path d="M42.3699 256.699C26.2621 250.667 10.0607 244.6 -6.04703 238.569C-7.45177 238.043 -8.2934 240.29 -6.88866 240.816C9.21909 246.848 25.4205 252.915 41.5282 258.946C43.0266 259.507 43.8683 257.26 42.3699 256.699Z" fill="#080522"/>
<path d="M41.2228 256.91C28.8557 265.413 16.4299 273.788 4.0627 282.291C2.76398 283.193 4.30982 285.053 5.60855 284.151C17.9757 275.648 30.4015 267.273 42.7687 258.77C44.0323 257.962 42.4865 256.102 41.2228 256.91Z" fill="#080522"/>
<path d="M-7.61487 239.904C-3.83923 254.345 -0.192317 268.844 3.58332 283.285C4.00535 284.725 6.35774 284.431 5.97077 282.898C2.19514 268.457 -1.45177 253.957 -5.2274 239.516C-5.64944 238.077 -8.0369 238.464 -7.61487 239.904Z" fill="#080522"/>
<path d="M49.1262 71.6094C45.4739 70.2418 42.1371 68.0313 39.4205 65.3056C31.3406 56.941 30.0007 45.1205 35.9176 33.8817L35.9527 33.788C35.9878 33.6944 36.0228 33.6007 36.0579 33.5071C42.6188 22.8298 55.6432 17.9898 67.1736 21.9871C67.3609 22.0572 67.6419 22.1624 67.8292 22.2325C77.8497 25.9848 84.3499 35.146 84.7413 46.0774C85.1328 57.0089 79.3087 66.5739 69.5262 71.0262C63.1605 73.768 55.6817 74.0642 49.1262 71.6094ZM66.4149 26.2945C56.6754 22.6475 45.453 26.6674 39.7692 35.8578C36.2612 42.6596 35.4798 48.4535 37.4019 53.8716C39.4411 59.5471 43.6685 64.2267 48.8898 66.8226C49.4167 67.1266 49.9786 67.337 50.6341 67.5825C60.8419 71.4049 72.544 67.2443 77.8533 57.9136C83.7355 47.6228 80.0304 33.8489 69.646 27.9316C68.6274 27.2298 67.5387 26.7153 66.4149 26.2945Z" fill="#080522"/>
<path d="M49.9898 41.9274C52.8084 37.537 58.1679 35.4862 62.956 37.8131C68.306 40.3503 70.5214 47.2664 67.235 52.3358C64.4865 56.5389 58.9513 58.2036 54.2803 56.1342C48.3334 53.4802 47.4641 46.9614 50.095 41.6465C50.8083 40.3119 48.5608 39.4702 47.8474 40.8049C44.8073 46.9276 46.0045 53.9963 52.1977 57.7035C58.2037 61.3406 66.454 58.9842 69.7515 52.7443C72.8152 46.8439 70.5879 39.3895 64.7577 36.1385C58.7401 32.8174 51.6368 34.9627 48.0463 40.559C47.1457 41.8234 49.0892 43.1919 49.9898 41.9274Z" fill="#080522"/>
<path d="M267.356 163.578C272.424 163.447 277.104 160.074 277.581 154.807C277.989 149.727 273.96 144.801 268.892 144.078C263.508 143.343 258.453 147.431 257.847 152.756C257.265 158.304 261.89 163.346 267.356 163.578C268.936 163.636 269.087 161.236 267.601 161.214C263.715 161.04 260.261 157.718 260.282 153.668C260.315 149.302 264.305 145.777 268.741 146.478C272.264 147.049 275.426 150.583 275.264 154.152C275.149 158.167 271.498 161.071 267.601 161.214C265.986 161.25 265.741 163.614 267.356 163.578Z" fill="#080522"/>
<path d="M212.665 168.192C209.342 170.792 207.507 175.123 208.937 179.289C210.285 183.104 213.821 185.923 217.929 186.073C219.509 186.131 219.66 183.732 218.173 183.709C215.236 183.57 212.613 181.734 211.418 178.937C209.988 175.625 211.473 172.231 214.211 170.052C215.322 169.08 213.87 167.255 212.665 168.192Z" fill="#080522"/>
<path d="M217.929 186.073C219.006 186.049 220.082 186.025 221.077 185.65C221.686 185.451 222.177 184.995 222.013 184.292C221.907 183.719 221.263 183.157 220.655 183.357C219.824 183.579 218.993 183.802 218.174 183.709C217.542 183.686 216.957 184.107 216.898 184.833C216.817 185.336 217.297 186.05 217.929 186.073Z" fill="#080522"/>
<path d="M263.871 144.654C246.88 152.387 229.913 160.342 212.829 168.04C211.413 168.684 212.409 170.873 213.825 170.228C230.816 162.495 247.783 154.54 264.867 146.842C266.283 146.198 265.287 144.01 263.871 144.654Z" fill="#080522"/>
<path d="M271.498 160.217C254.507 167.95 237.423 175.648 220.432 183.38C219.016 184.025 220.012 186.213 221.428 185.569C238.419 177.836 255.503 170.138 272.494 162.405C273.816 161.726 272.914 159.573 271.498 160.217Z" fill="#080522"/>
<path d="M326.85 -4.42815C328.759 -0.402851 336.387 16.0144 338.226 20.227C338.461 20.7418 338.25 21.3037 337.735 21.5381C333.71 23.4478 317.293 31.075 313.045 33.0082C312.53 33.2426 311.968 33.0321 311.734 32.5173C309.859 28.3983 302.244 11.6651 300.369 7.54613C300.135 7.03126 300.345 6.46936 300.86 6.23504C304.85 4.41899 321.455 -3.1381 325.574 -5.01273C325.925 -5.09483 326.58 -4.84937 326.85 -4.42815Z" fill="#080522"/>
<path d="M288.839 3.54867C297.72 -0.493501 306.695 -4.50061 315.542 -8.44913C316.958 -9.09353 315.962 -11.2817 314.546 -10.6373C305.664 -6.59516 296.689 -2.58805 287.843 1.36047C286.427 2.00488 287.423 4.19307 288.839 3.54867Z" fill="#080522"/>
<path d="M314.043 -9.01023C318.027 -0.257456 322.01 8.49532 326.053 17.3768C326.697 18.7927 328.885 17.7968 328.241 16.3809C324.257 7.62815 320.274 -1.12463 316.231 -10.0061C315.587 -11.422 313.399 -10.4261 314.043 -9.01023Z" fill="#080522"/>
<path d="M326.555 15.7495C317.674 19.7916 308.792 23.8338 299.911 27.876C298.495 28.5204 299.491 30.7086 300.907 30.0642C309.788 26.022 318.669 21.9798 327.551 17.9377C328.967 17.2933 327.971 15.1051 326.555 15.7495Z" fill="#080522"/>
<path d="M301.503 28.4725C297.461 19.591 293.477 10.8383 289.435 1.95677C288.79 0.540882 286.602 1.53677 287.247 2.95266C291.289 11.8342 295.272 20.5869 299.315 29.4684C299.959 30.8843 302.147 29.8884 301.503 28.4725Z" fill="#080522"/>
<path d="M109.87 198.04C116.712 186.613 129.876 179.69 143.231 181.381C156.867 183.177 168.763 193.611 171.813 207.14C174.804 220.539 169.731 234.657 158.464 242.504C146.284 251.077 129.804 250.886 117.956 241.751C111.832 237.002 107.299 230.286 105.517 222.785C103.464 214.007 106.023 205.462 110.104 197.7C110.818 196.366 108.57 195.524 107.857 196.859C103.951 204.152 101.509 212.101 102.66 220.433C103.717 227.877 107.477 234.944 112.723 240.326C123.894 251.556 141.194 254.404 155.318 247.199C167.99 240.732 175.72 227.503 175.105 213.177C174.489 197.997 164.113 184.929 149.691 180.383C133.923 175.44 116.511 182.587 108.056 196.613C107.12 197.971 109.064 199.34 109.87 198.04Z" fill="#080522"/>
<path d="M129.012 209.372C132.369 204.115 138.84 201.947 144.518 205.034C150.161 208.215 152.201 215.599 148.704 221.231C145.383 226.394 138.103 228.153 132.905 224.925C127.087 221.358 126.311 214.874 129.211 209.126C129.924 207.792 127.677 206.95 126.963 208.285C123.35 215.367 125.133 223.723 132.591 227.477C139.24 230.821 147.689 228.219 151.221 221.639C154.752 215.06 152.337 206.681 145.828 202.962C139.225 199.208 131.162 201.635 127.104 207.91C126.168 209.268 128.112 210.637 129.012 209.372Z" fill="#080522"/>
<path d="M115.631 201.478C122.87 189.56 138.024 184.45 150.644 190.67C163.92 197.136 169.592 213.355 163.278 226.795C156.965 240.234 139.891 245.907 126.615 239.441C120.118 236.26 114.989 230.282 112.645 223.425C109.984 215.701 112.064 208.151 115.736 201.197C116.449 199.862 114.201 199.021 113.488 200.355C107.267 212.121 107.519 225.136 116.993 235.197C125.705 244.439 139.529 247.159 151.02 241.852C162.124 236.72 168.837 225.352 168.141 213.239C167.444 201.126 159.094 190.631 147.552 186.95C134.664 182.871 120.528 188.683 113.558 200.168C112.88 201.409 114.824 202.778 115.631 201.478Z" fill="#080522"/>
<path d="M122.105 205.291C127.555 196.44 138.824 192.865 148.166 197.858C157.415 202.816 160.979 214.401 156.395 223.79C151.811 233.179 139.898 237.047 130.498 232.78C125.675 230.546 121.998 226.393 120.088 221.514C117.955 215.803 119.52 210.196 122.21 205.01C122.923 203.675 120.676 202.834 119.962 204.168C115.367 213.019 115.582 222.71 122.714 230.185C129.084 236.842 139.197 238.92 147.657 235.147C165.35 227.25 164.53 201.209 146.327 194.5C136.459 190.911 125.576 195.165 120.161 203.922C119.354 205.222 121.298 206.59 122.105 205.291Z" fill="#080522"/>
<path d="M134.772 212.81C136.047 210.832 138.364 209.777 140.705 210.654C143.386 211.765 144.499 215.065 143.014 217.605C141.704 219.677 138.954 220.463 136.906 219.375C134.108 218.007 133.743 214.988 135.006 212.471C135.719 211.136 133.472 210.295 132.759 211.629C130.946 215.329 131.931 219.542 135.689 221.483C139.108 223.19 143.555 221.865 145.262 218.447C147.063 215.063 145.761 210.839 142.413 208.944C138.971 207.015 134.875 208.257 132.829 211.442C131.963 212.613 133.872 214.075 134.772 212.81Z" fill="#080522"/>
<path d="M69.3101 186.589C68.5609 186.309 67.9871 185.56 67.893 184.67C67.8926 183.816 68.3604 183.137 69.1327 182.785C76.2708 179.692 81.1023 174.774 83.4283 168.277C85.8244 161.593 85.5283 154.114 82.5991 147.678C79.67 141.243 74.2837 136.236 67.541 133.711C60.7982 131.186 53.4831 131.33 46.9536 134.224C46.4388 134.458 45.9004 134.47 45.4322 134.295C44.683 134.014 44.1091 133.266 44.0151 132.376C44.0146 131.522 44.4825 130.843 45.2548 130.491C52.779 127.222 61.1707 127.054 68.9437 129.965C76.8102 132.911 82.9927 138.643 86.2968 146.073C89.7532 153.667 89.9681 162.504 86.9288 170.335C84.1349 177.511 78.4846 183.191 70.703 186.577C70.3168 186.753 69.7784 186.765 69.3101 186.589Z" fill="#080522"/>
<path d="M62.4796 171.752C61.7304 171.471 61.1565 170.722 61.1561 169.868C61.1557 169.014 61.6236 168.334 62.3022 167.948C65.0053 166.718 66.9823 164.575 67.9641 161.953C68.911 159.424 68.7926 156.604 67.4922 154.088C66.3791 151.642 64.2949 149.794 61.6727 148.812C59.0505 147.83 56.1363 147.913 53.597 148.991C53.0821 149.226 52.5437 149.238 52.0755 149.062C51.3263 148.782 50.7875 147.939 50.6934 147.05C50.693 146.196 51.1609 145.516 51.8981 145.259C55.4671 143.712 59.4231 143.698 63.0754 145.066C66.6341 146.399 69.4795 149.066 71.0963 152.447C72.7716 155.958 72.914 159.855 71.6751 163.449C70.3074 167.101 67.5701 170.134 63.8724 171.739C63.5799 171.95 63.0415 171.962 62.4796 171.752Z" fill="#080522"/>
<path d="M172.797 61.6454L136.526 87.7863C135.906 88.3016 135.965 89.2847 136.715 89.5652L183.165 106.959C183.914 107.239 184.698 106.572 184.475 105.741L174.201 62.1714C174.225 61.5393 173.382 61.2237 172.797 61.6454Z" fill="#080522"/>
<path d="M116.982 90.9326C133.09 96.9642 149.256 103.125 165.364 109.156C166.769 109.682 167.61 107.435 166.205 106.909C150.098 100.877 133.931 94.7166 117.824 88.685C116.325 88.1239 115.484 90.3715 116.982 90.9326Z" fill="#080522"/>
<path d="M118.129 90.7213C130.707 81.6563 143.343 72.72 155.92 63.655C157.219 62.7531 155.673 60.8929 154.374 61.7948C141.797 70.8598 129.161 79.796 116.583 88.861C115.413 89.7043 116.865 91.5295 118.129 90.7213Z" fill="#080522"/>
<path d="M166.967 107.727C163.436 92.6307 159.906 77.5341 156.376 62.4374C155.989 60.9044 153.695 61.3268 153.989 62.8248C157.519 77.9214 161.049 93.0181 164.579 108.115C164.966 109.648 167.354 109.26 166.967 107.727Z" fill="#080522"/>
<path d="M118.241 292.966C112.16 304.357 106.021 315.619 99.5068 326.741C100.08 326.635 100.654 326.53 101.192 326.518C90.3152 318.494 79.9646 309.92 69.5204 301.311C69.3686 302.001 69.1817 302.785 69.0299 303.476C85.8122 300.577 102.653 297.807 119.435 294.908C120.933 294.615 120.511 292.321 119.048 292.52C102.266 295.419 85.4248 298.19 68.6425 301.089C67.6243 301.241 67.3207 302.622 68.152 303.254C78.5962 311.863 88.9467 320.437 99.8237 328.461C100.315 328.859 101.205 328.765 101.509 328.238C108.023 317.116 114.162 305.854 120.243 294.463C120.898 292.999 118.954 291.631 118.241 292.966Z" fill="#080522"/>
<path d="M67.8351 301.534C65.3902 304.356 63.2383 307.821 61.1331 310.877C60.3261 312.176 62.2696 313.545 63.0766 312.245C65.1233 309.061 67.2401 305.689 69.7786 302.902C70.7378 301.766 68.7943 300.398 67.8351 301.534Z" fill="#080522"/>
<path d="M99.5067 326.741C97.0619 329.563 94.5585 332.256 91.9615 334.914C90.9086 336.015 92.8522 337.383 93.905 336.283C96.4084 333.59 99.0054 330.931 101.45 328.11C102.409 326.974 100.501 325.512 99.5067 326.741Z" fill="#080522"/>
<path d="M93.6818 334.597C83.507 326.409 73.0282 318.748 62.8183 310.654C61.5889 309.659 60.2205 311.603 61.4499 312.597C71.6597 320.691 82.1035 328.446 92.3134 336.541C93.4491 337.5 94.8176 335.556 93.6818 334.597Z" fill="#080522"/>
<path d="M265.99 89.7344C273.482 92.5398 280.974 95.3452 288.559 98.1856C291.462 99.2727 293.146 94.7775 290.242 93.6904C282.75 90.885 275.258 88.0796 267.673 85.2391C264.735 84.2457 263.086 88.6473 265.99 89.7344Z" fill="#080522"/>
<path d="M280.03 79.6149C277.224 87.1068 274.419 94.5988 271.578 102.184C270.491 105.088 274.986 106.771 276.074 103.868C278.879 96.3757 281.684 88.8837 284.525 81.2981C285.612 78.395 281.117 76.7117 280.03 79.6149Z" fill="#080522"/>
<path d="M223.947 5.21047C217.125 8.31532 210.174 11.4788 203.352 14.5836C200.521 15.8724 202.512 20.2488 205.344 18.96C212.166 15.8551 219.117 12.6917 225.939 9.58684C228.771 8.29804 226.779 3.92166 223.947 5.21047Z" fill="#080522"/>
<path d="M221.521 21.3867C218.416 14.5647 215.252 7.61397 212.147 0.791952C210.859 -2.03983 206.482 -0.0480386 207.771 2.78374C210.876 9.60576 214.039 16.5565 217.144 23.3785C218.468 26.1166 222.809 24.2185 221.521 21.3867Z" fill="#080522"/>
</g>
</svg>
