<svg width="13" height="12" viewBox="0 0 13 12" fill="none" xmlns="http://www.w3.org/2000/svg">
<path fill-rule="evenodd" clip-rule="evenodd" d="M10.6359 2.05545C10.8264 2.00645 11.0219 2.04895 11.1754 2.16795C11.3289 2.28745 11.4164 2.46745 11.4164 2.66095V8.50395C11.4164 8.78945 11.2239 9.03846 10.9474 9.10946L7.16641 10.08V2.94695L10.6359 2.05545ZM2.69563 2.05589L6.16663 2.94739V10.0809L2.38563 9.10989C2.10963 9.03939 1.91663 8.79039 1.91663 8.50439V2.66189C1.91663 2.46789 2.00463 2.28839 2.15763 2.16839C2.31063 2.04989 2.50713 2.00839 2.69563 2.05589Z" fill="#415B82"/>
<mask id="mask0" mask-type="alpha" maskUnits="userSpaceOnUse" x="1" y="2" width="11" height="9">
<path fill-rule="evenodd" clip-rule="evenodd" d="M10.6359 2.05545C10.8264 2.00645 11.0219 2.04895 11.1754 2.16795C11.3289 2.28745 11.4164 2.46745 11.4164 2.66095V8.50395C11.4164 8.78945 11.2239 9.03846 10.9474 9.10946L7.16641 10.08V2.94695L10.6359 2.05545ZM2.69563 2.05589L6.16663 2.94739V10.0809L2.38563 9.10989C2.10963 9.03939 1.91663 8.79039 1.91663 8.50439V2.66189C1.91663 2.46789 2.00463 2.28839 2.15763 2.16839C2.31063 2.04989 2.50713 2.00839 2.69563 2.05589Z" fill="white"/>
</mask>
<g mask="url(#mask0)">
<rect x="0.666626" width="12" height="12" fill="#415B82"/>
</g>
</svg>
