<svg width="20" height="22" viewBox="0 0 20 22" fill="none" xmlns="http://www.w3.org/2000/svg">
<g clip-path="url(#clip0)">
<path d="M13.7242 13.7761L9.625 17.8753L5.52578 13.7761C2.45352 13.9093 0 16.4229 0 19.5253V19.9378C0 21.0764 0.923828 22.0003 2.0625 22.0003H17.1875C18.3262 22.0003 19.25 21.0764 19.25 19.9378V19.5253C19.25 16.4229 16.7965 13.9093 13.7242 13.7761ZM0.584375 3.42919L0.859375 3.49364V6.00301C0.558594 6.18348 0.34375 6.49715 0.34375 6.87528C0.34375 7.23622 0.541406 7.537 0.820703 7.72176L0.150391 10.3987C0.0773437 10.6952 0.240625 11.0003 0.476953 11.0003H2.27305C2.50938 11.0003 2.67266 10.6952 2.59961 10.3987L1.9293 7.72176C2.20859 7.537 2.40625 7.23622 2.40625 6.87528C2.40625 6.49715 2.19141 6.18348 1.89062 6.00301V3.74286L4.72656 4.42606C4.35703 5.16512 4.125 5.99012 4.125 6.87528C4.125 9.91317 6.58711 12.3753 9.625 12.3753C12.6629 12.3753 15.125 9.91317 15.125 6.87528C15.125 5.99012 14.8973 5.16512 14.5234 4.42606L18.6613 3.42919C19.4434 3.24012 19.4434 2.26473 18.6613 2.07567L10.4801 0.0991089C9.92148 -0.0340942 9.33281 -0.0340942 8.77422 0.0991089L0.584375 2.07137C-0.193359 2.26044 -0.193359 3.24012 0.584375 3.42919Z" fill="#7C51FF"/>
</g>
<defs>
<clipPath id="clip0">
<rect width="19.25" height="22" fill="white"/>
</clipPath>
</defs>
</svg>
