<svg width="16" height="16" viewBox="0 0 16 16" fill="none" xmlns="http://www.w3.org/2000/svg">
<path d="M2.95101 13.6005L1.82751 1H14.1725L13.0475 13.5985L7.99251 15L2.95101 13.6005Z" fill="#E44F26"/>
<path d="M8 13.929L12.085 12.7965L13.046 2.03049H8V13.929Z" fill="#F1662A"/>
<path d="M8 6.7035H5.955L5.814 5.121H8V3.5755H4.125L4.162 3.9905L4.5415 8.249H8V6.7035Z" fill="#EBEBEB"/>
<path d="M7.99997 10.717L7.99297 10.719L6.27197 10.2545L6.16197 9.022H4.61047L4.82697 11.448L7.99297 12.327L7.99997 12.325V10.717Z" fill="#EBEBEB"/>
<path d="M7.99451 6.7035V8.249H9.89751L9.71851 10.2535L7.99451 10.7185V12.3265L11.163 11.448L11.186 11.187L11.549 7.1185L11.587 6.7035H7.99451Z" fill="white"/>
<path d="M7.99451 3.5755V5.121H11.7275L11.7585 4.774L11.829 3.9905L11.866 3.5755H7.99451Z" fill="white"/>
</svg>
