<svg width="50" height="32" viewBox="0 0 50 32" fill="none" xmlns="http://www.w3.org/2000/svg">
<g clip-path="url(#clip0)">
<path d="M6.0768 15.9998C8.32405 15.9998 10.2732 14.855 11.2593 13.1042L8.25528 11.4207C7.88838 12.2063 7.03993 12.6777 6.03091 12.6777C4.54041 12.6777 3.4397 11.6227 3.4397 10.0738C3.4397 8.52504 4.54041 7.47003 6.03091 7.47003C7.03993 7.47003 7.86544 7.94142 8.25528 8.72707L11.2593 7.02111C10.2732 5.29273 8.30111 4.14795 6.0768 4.14795C2.59123 4.14795 0 6.72929 0 10.0738C0 13.4184 2.59123 15.9998 6.0768 15.9998Z" fill="white"/>
<path d="M18.3704 15.9998C21.6576 15.9998 24.2963 13.4184 24.2963 10.0738C24.2963 6.72929 21.6576 4.14795 18.3704 4.14795C15.0831 4.14795 12.4445 6.72929 12.4445 10.0738C12.4445 13.4184 15.0831 15.9998 18.3704 15.9998ZM18.3704 12.7226C16.9168 12.7226 15.7987 11.6676 15.7987 10.0738C15.7987 8.48018 16.9168 7.42517 18.3704 7.42517C19.8239 7.42517 20.942 8.48018 20.942 10.0738C20.942 11.6676 19.8239 12.7226 18.3704 12.7226Z" fill="white"/>
<path d="M34.4563 0V5.535C33.693 4.68346 32.5595 4.16806 31.0098 4.16806C27.9796 4.16806 25.4814 6.74507 25.4814 10.084C25.4814 13.4229 27.9796 16 31.0098 16C32.5595 16 33.693 15.4846 34.4563 14.633V15.6863H37.9259V0H34.4563ZM31.7037 12.8179C30.1077 12.8179 28.9511 11.7647 28.9511 10.084C28.9511 8.40338 30.1077 7.35014 31.7037 7.35014C33.2997 7.35014 34.4563 8.40338 34.4563 10.084C34.4563 11.7647 33.2997 12.8179 31.7037 12.8179Z" fill="white"/>
<path d="M39.1111 4.14795H49.1852V7.11091H39.1111V4.14795Z" fill="#7C51FF"/>
<path d="M42.0741 8.29639H49.1852V11.2593H42.0741V8.29639Z" fill="#7C51FF"/>
<path d="M39.1111 13.0371H49.1852V16.0001H39.1111V13.0371Z" fill="#7C51FF"/>
<path d="M6.0768 31.4075C8.32405 31.4075 10.2732 30.2627 11.2593 28.5119L8.25528 26.8284C7.88838 27.614 7.03993 28.0854 6.03091 28.0854C4.54041 28.0854 3.4397 27.0304 3.4397 25.4816C3.4397 23.9328 4.54041 22.8778 6.03091 22.8778C7.03993 22.8778 7.86544 23.3491 8.25528 24.1348L11.2593 22.4288C10.2732 20.7005 8.30111 19.5557 6.0768 19.5557C2.59123 19.5557 0 22.1371 0 25.4816C0 28.8261 2.59123 31.4075 6.0768 31.4075Z" fill="white"/>
<path d="M12.4445 17.1851V31.4073H16V17.1851H12.4445Z" fill="white"/>
<path d="M26.16 19.8699V20.925C25.3967 20.072 24.2633 19.5557 22.7135 19.5557C19.6833 19.5557 17.1852 22.1371 17.1852 25.4816C17.1852 28.8261 19.6833 31.4075 22.7135 31.4075C24.2633 31.4075 25.3967 30.8912 26.16 30.0382V31.0932H29.6296V19.8699H26.16ZM23.4074 28.2201C21.8114 28.2201 20.6548 27.1651 20.6548 25.4816C20.6548 23.7981 21.8114 22.7431 23.4074 22.7431C25.0035 22.7431 26.16 23.7981 26.16 25.4816C26.16 27.1651 25.0035 28.2201 23.4074 28.2201Z" fill="white"/>
<path d="M34.6888 28.2546L38.8888 22.3998V20.1479H30.4444V23.3005H34.4222L30.2222 29.1553V31.4072H39.1111V28.2546H34.6888Z" fill="white"/>
<path d="M45.3556 28.2546L49.5556 22.3998V20.1479H41.1112V23.3005H45.0889L40.8889 29.1553V31.4072H49.7778V28.2546H45.3556Z" fill="white"/>
</g>
<defs>
<clipPath id="clip0">
<rect width="49.7778" height="32" fill="white"/>
</clipPath>
</defs>
</svg>
