<svg width="20" height="22" viewBox="0 0 20 22" fill="none" xmlns="http://www.w3.org/2000/svg">
<path d="M10 11C13.1562 11 15.7143 8.53789 15.7143 5.5C15.7143 2.46211 13.1562 0 10 0C6.84375 0 4.28571 2.46211 4.28571 5.5C4.28571 8.53789 6.84375 11 10 11ZM14.2768 12.4008L12.1429 20.625L10.7143 14.7812L12.1429 12.375H7.85714L9.28571 14.7812L7.85714 20.625L5.72321 12.4008C2.54018 12.5469 0 15.052 0 18.15V19.9375C0 21.0762 0.959821 22 2.14286 22H17.8571C19.0402 22 20 21.0762 20 19.9375V18.15C20 15.052 17.4598 12.5469 14.2768 12.4008Z" fill="#7C51FF"/>
</svg>
