<svg width="23" height="22" viewBox="0 0 23 22" fill="none" xmlns="http://www.w3.org/2000/svg">
<g clip-path="url(#clip0)">
<path d="M22.2832 4.38214C22.1811 4.13557 21.9406 3.97478 21.6739 3.97478L18.4022 3.97394L18.4014 0.702435C18.4014 0.435559 18.2406 0.195202 17.9942 0.0929837C17.7478 -0.00873149 17.464 0.0474972 17.2753 0.236157L15.0821 2.42941C13.2723 1.56802 11.2066 1.24676 9.21062 1.52539C6.97691 1.83674 4.95134 2.84651 3.35277 4.44508C1.40558 6.39227 0.333374 8.98098 0.333374 11.7345C0.333374 14.4879 1.40575 17.0766 3.35277 19.0236C5.29962 20.9704 7.88832 22.0428 10.6418 22.0428H10.642C13.3952 22.0428 15.9842 20.9704 17.9311 19.0236C19.5298 17.4248 20.5394 15.3993 20.851 13.1657C21.1292 11.1697 20.8083 9.10401 19.9468 7.29412L22.1402 5.10086C22.3287 4.9122 22.3852 4.62854 22.2832 4.38214ZM11.7387 12.8312C11.4458 13.1243 11.0563 13.2857 10.6418 13.2857C10.2276 13.2857 9.83803 13.1243 9.54497 12.8312C9.25191 12.5383 9.09061 12.1487 9.09061 11.7343C9.09061 11.3201 9.25207 10.9305 9.54497 10.6375C9.84743 10.3352 10.2447 10.1839 10.6418 10.1839C10.8201 10.1839 10.9984 10.2147 11.1679 10.2756L10.1756 11.2681C9.91792 11.5255 9.91792 11.9433 10.1756 12.2009C10.3043 12.3297 10.4732 12.3941 10.642 12.3941C10.8107 12.3941 10.9796 12.3297 11.1083 12.2009L12.1008 11.2085C12.2973 11.7562 12.1768 12.3931 11.7387 12.8312ZM12.1505 9.29284C11.044 8.60903 9.57065 8.74599 8.61207 9.70456C8.06993 10.2467 7.77133 10.9676 7.77133 11.7343C7.77133 12.5012 8.06993 13.222 8.61207 13.7641C9.15422 14.3064 9.87512 14.605 10.6418 14.605C11.4086 14.605 12.1295 14.3064 12.6716 13.7641C13.6304 12.8055 13.767 11.3322 13.0833 10.2257L14.8305 8.47861C16.4492 10.5581 16.3033 13.5751 14.3929 15.4855C12.3245 17.5538 8.95901 17.5538 6.89064 15.4855C4.82227 13.4172 4.82227 10.0515 6.89064 7.98313C7.92491 6.94902 9.28329 6.43189 10.6418 6.43189C11.7928 6.43189 12.9437 6.80333 13.8976 7.54572L12.1505 9.29284ZM16.9982 18.0907C13.4934 21.5955 7.79047 21.5955 4.28566 18.0907C0.780685 14.5857 0.780685 8.88279 4.28566 5.37798C6.00542 3.65822 8.32741 2.75537 10.668 2.75537C11.8693 2.75537 13.076 2.99338 14.2079 3.48064C14.2064 3.48936 14.2057 3.49809 14.2047 3.50682C14.2039 3.51303 14.203 3.51924 14.2024 3.52545C14.2007 3.54526 14.1995 3.56523 14.1995 3.5852L14.1997 6.14638C11.6384 4.51491 8.19212 4.81603 5.95775 7.0504C3.37509 9.63306 3.37509 13.8356 5.95775 16.4184C7.24933 17.7098 8.94542 18.3556 10.6418 18.3556C12.3379 18.3556 14.0347 17.7097 15.3259 16.4184C17.5601 14.1841 17.8611 10.738 16.2298 8.17649L18.791 8.17665C18.8111 8.17665 18.8309 8.17565 18.8507 8.1738C18.8569 8.17313 18.8633 8.17229 18.8695 8.17145C18.8782 8.17044 18.887 8.16977 18.8955 8.16843C20.3325 11.5059 19.6007 15.4882 16.9982 18.0907ZM18.5179 6.85738L15.5191 6.85704L15.5188 3.85846L17.0825 2.29463L17.0831 4.63358C17.0833 4.9978 17.3784 5.29305 17.7426 5.29305L20.0815 5.29372L18.5179 6.85738Z" fill="white"/>
</g>
<defs>
<clipPath id="clip0">
<rect width="22" height="22" fill="white" transform="translate(0.333374)"/>
</clipPath>
</defs>
</svg>
