<svg width="23" height="22" viewBox="0 0 23 22" fill="none" xmlns="http://www.w3.org/2000/svg">
<g clip-path="url(#clip0)">
<path d="M0.977905 20.0234H21.6888C22.0448 20.0234 22.3334 19.7349 22.3334 19.3789V3.91016C22.3334 3.5542 22.0448 3.26562 21.6888 3.26562C18.5757 3.26562 17.3002 1.97656 15.2006 1.97656C13.7349 1.97656 12.323 3.11639 11.3334 4.20097C10.3457 3.11859 8.93327 1.97656 7.46619 1.97656C5.36755 1.97656 4.09048 3.26562 0.977905 3.26562C0.621952 3.26562 0.333374 3.5542 0.333374 3.91016V19.3789C0.333374 19.7349 0.621952 20.0234 0.977905 20.0234ZM1.62244 18.7171C4.48317 18.5636 5.83999 17.4453 7.46619 17.4453C8.28289 17.4453 9.18962 18.0906 9.87622 18.7344H1.62244V18.7171ZM12.788 18.7344C13.4736 18.0905 14.3802 17.4453 15.2006 17.4453C16.8357 17.4453 18.1698 18.5629 21.0443 18.7171V18.7344H12.788ZM15.2006 3.26562C16.8366 3.26562 18.1683 4.38311 21.0443 4.53737V17.4261C18.3894 17.2664 17.1481 16.1562 15.2006 16.1562C13.9994 16.1562 12.8639 16.9132 11.9779 17.7314V5.42128C12.5678 4.69455 13.9796 3.26562 15.2006 3.26562ZM7.46619 3.26562C8.68203 3.26562 10.0974 4.69554 10.6888 5.42188V17.7314C9.80287 16.9132 8.66733 16.1562 7.46619 16.1562C5.5173 16.1562 4.27958 17.2663 1.62244 17.4261V4.53737C4.48317 4.38393 5.83999 3.26562 7.46619 3.26562Z" fill="white"/>
<path d="M13.9115 8.42188H19.0677C19.4237 8.42188 19.7123 8.1333 19.7123 7.77734C19.7123 7.42139 19.4237 7.13281 19.0677 7.13281H13.9115C13.5555 7.13281 13.267 7.42139 13.267 7.77734C13.267 8.1333 13.5555 8.42188 13.9115 8.42188Z" fill="white"/>
<path d="M13.9115 11H19.0677C19.4237 11 19.7123 10.7114 19.7123 10.3555C19.7123 9.99952 19.4237 9.71094 19.0677 9.71094H13.9115C13.5555 9.71094 13.267 9.99952 13.267 10.3555C13.267 10.7114 13.5555 11 13.9115 11Z" fill="white"/>
<path d="M13.9115 13.5781H19.0677C19.4237 13.5781 19.7123 13.2895 19.7123 12.9336C19.7123 12.5776 19.4237 12.2891 19.0677 12.2891H13.9115C13.5555 12.2891 13.267 12.5776 13.267 12.9336C13.267 13.2895 13.5555 13.5781 13.9115 13.5781Z" fill="white"/>
<path d="M3.599 8.42188H8.75525C9.1112 8.42188 9.39978 8.1333 9.39978 7.77734C9.39978 7.42139 9.1112 7.13281 8.75525 7.13281H3.599C3.24305 7.13281 2.95447 7.42139 2.95447 7.77734C2.95447 8.1333 3.24305 8.42188 3.599 8.42188Z" fill="white"/>
<path d="M3.599 11H8.75525C9.1112 11 9.39978 10.7114 9.39978 10.3555C9.39978 9.99952 9.1112 9.71094 8.75525 9.71094H3.599C3.24305 9.71094 2.95447 9.99952 2.95447 10.3555C2.95447 10.7114 3.24305 11 3.599 11Z" fill="white"/>
<path d="M8.75525 12.2891H3.599C3.24305 12.2891 2.95447 12.5776 2.95447 12.9336C2.95447 13.2895 3.24305 13.5781 3.599 13.5781H8.75525C9.1112 13.5781 9.39978 13.2895 9.39978 12.9336C9.39978 12.5776 9.1112 12.2891 8.75525 12.2891Z" fill="white"/>
</g>
<defs>
<clipPath id="clip0">
<rect width="22" height="22" fill="white" transform="translate(0.333374)"/>
</clipPath>
</defs>
</svg>
