<svg width="23" height="22" viewBox="0 0 23 22" fill="none" xmlns="http://www.w3.org/2000/svg">
<g clip-path="url(#clip0)">
<path d="M21.5901 0.961548H1.07663C0.666189 0.961548 0.333374 1.29436 0.333374 1.70481V17.0899C0.333374 17.5004 0.666189 17.8332 1.07663 17.8332H12.5716V20.2952C12.5716 20.5528 12.705 20.792 12.9241 20.9275C13.1432 21.0628 13.4168 21.0753 13.6472 20.96L15.4516 20.0578L17.256 20.96C17.3609 21.0124 17.4747 21.0384 17.5884 21.0384C17.7243 21.0384 17.8598 21.0012 17.9792 20.9275C18.1983 20.7921 18.3317 20.5528 18.3317 20.2952V17.8332H21.5901C22.0006 17.8332 22.3334 17.5004 22.3334 17.0899V1.70481C22.3334 1.29436 22.0006 0.961548 21.5901 0.961548ZM15.4516 14.5207C13.8906 14.5207 12.6205 13.2506 12.6205 11.6896C12.6205 10.1287 13.8906 8.85851 15.4516 8.85851C17.0126 8.85851 18.2826 10.1286 18.2826 11.6896C18.2826 13.2507 17.0126 14.5207 15.4516 14.5207ZM15.784 18.562C15.6794 18.5097 15.5655 18.4835 15.4516 18.4835C15.3377 18.4835 15.2238 18.5097 15.1192 18.562L14.058 19.0926V15.7751C14.4955 15.9247 14.964 16.0072 15.4515 16.0072C15.9392 16.0072 16.4076 15.9247 16.8451 15.7751V19.0926L15.784 18.562ZM20.8469 16.3467H18.3317V14.9027C19.2133 14.1117 19.7692 12.9645 19.7692 11.6895C19.7692 9.30888 17.8323 7.37199 15.4516 7.37199C13.0709 7.37199 11.134 9.30888 11.134 11.6895C11.134 12.9645 11.6899 14.1117 12.5715 14.9027V16.3467H1.81989V2.44807H20.8469V16.3467H20.8469Z" fill="white"/>
<path d="M3.64072 6.29426H12.6154C13.0258 6.29426 13.3586 5.96144 13.3586 5.551C13.3586 5.14055 13.0258 4.80774 12.6154 4.80774H3.64072C3.23028 4.80774 2.89746 5.14055 2.89746 5.551C2.89746 5.96144 3.23028 6.29426 3.64072 6.29426Z" fill="white"/>
<path d="M3.64072 10.1406H8.76909C9.17953 10.1406 9.51235 9.80775 9.51235 9.39731C9.51235 8.98687 9.17953 8.65405 8.76909 8.65405H3.64072C3.23028 8.65405 2.89746 8.98687 2.89746 9.39731C2.89754 9.80783 3.23028 10.1406 3.64072 10.1406Z" fill="white"/>
<path d="M3.64072 13.9869H7.48701C7.89746 13.9869 8.23027 13.6541 8.23027 13.2436C8.23027 12.8332 7.89746 12.5004 7.48701 12.5004H3.64072C3.23028 12.5004 2.89746 12.8332 2.89746 13.2436C2.89746 13.6541 3.23028 13.9869 3.64072 13.9869Z" fill="white"/>
</g>
<defs>
<clipPath id="clip0">
<rect width="22" height="22" fill="white" transform="translate(0.333374)"/>
</clipPath>
</defs>
</svg>
