<svg width="23" height="22" viewBox="0 0 23 22" fill="none" xmlns="http://www.w3.org/2000/svg">
<g clip-path="url(#clip0)">
<path d="M7.95059 4.23828H4.10388C3.74788 4.23828 3.45935 4.52681 3.45935 4.88281C3.45935 5.23882 3.74788 5.52734 4.10388 5.52734H7.95059C8.30643 5.52734 8.59512 5.23882 8.59512 4.88281C8.59512 4.52681 8.30643 4.23828 7.95059 4.23828Z" fill="white"/>
<path d="M7.95059 6.81665H4.10388C3.74788 6.81665 3.45935 7.10518 3.45935 7.46118C3.45935 7.81718 3.74788 8.10571 4.10388 8.10571H7.95059C8.30643 8.10571 8.59512 7.81718 8.59512 7.46118C8.59512 7.10518 8.30643 6.81665 7.95059 6.81665Z" fill="white"/>
<path d="M7.95059 9.3949H4.10388C3.74788 9.3949 3.45935 9.68343 3.45935 10.0394C3.45935 10.3954 3.74788 10.684 4.10388 10.684H7.95059C8.30643 10.684 8.59512 10.3954 8.59512 10.0394C8.59512 9.68343 8.30643 9.3949 7.95059 9.3949Z" fill="white"/>
<path d="M7.95059 11.9731H4.10388C3.74788 11.9731 3.45935 12.2617 3.45935 12.6177C3.45935 12.9737 3.74788 13.2622 4.10388 13.2622H7.95059C8.30643 13.2622 8.59512 12.9737 8.59512 12.6177C8.59512 12.2617 8.30643 11.9731 7.95059 11.9731Z" fill="white"/>
<path d="M7.95059 14.5946H4.10388C3.74788 14.5946 3.45935 14.8833 3.45935 15.2391C3.45935 15.5951 3.74788 15.8837 4.10388 15.8837H7.95059C8.30643 15.8837 8.59512 15.5951 8.59512 15.2391C8.59512 14.8833 8.30643 14.5946 7.95059 14.5946Z" fill="white"/>
<path d="M10.1143 5.52734H13.961C14.317 5.52734 14.6055 5.23882 14.6055 4.88281C14.6055 4.52681 14.317 4.23828 13.961 4.23828H10.1143C9.75842 4.23828 9.46973 4.52681 9.46973 4.88281C9.46973 5.23882 9.75842 5.52734 10.1143 5.52734Z" fill="white"/>
<path d="M10.1143 8.10571H13.961C14.317 8.10571 14.6055 7.81718 14.6055 7.46118C14.6055 7.10518 14.317 6.81665 13.961 6.81665H10.1143C9.75842 6.81665 9.46973 7.10518 9.46973 7.46118C9.46973 7.81718 9.75842 8.10571 10.1143 8.10571Z" fill="white"/>
<path d="M12.6115 10.0394C12.6115 9.68343 12.323 9.3949 11.9669 9.3949H10.1143C9.75842 9.3949 9.46973 9.68343 9.46973 10.0394C9.46973 10.3954 9.75842 10.684 10.1143 10.684H11.9669C12.323 10.684 12.6115 10.3954 12.6115 10.0394Z" fill="white"/>
<path d="M18.7212 14.8667C18.4436 14.6439 18.0381 14.6884 17.8152 14.966L16.1552 17.0356L15.1275 16.291C14.8393 16.082 14.4361 16.1465 14.2273 16.4347C14.0185 16.7231 14.083 17.1261 14.3712 17.3349L15.8957 18.4395C16.0098 18.522 16.1421 18.5621 16.2735 18.5621C16.4627 18.5621 16.6497 18.4791 16.7766 18.3208L18.8208 15.7727C19.0435 15.4951 18.999 15.0894 18.7212 14.8667Z" fill="white"/>
<path d="M20.3476 12.8881C19.508 12.0338 18.4293 11.4953 17.2604 11.3367V2.59575C17.2604 1.16452 16.0959 0 14.6646 0H3.40195C1.97055 0 0.80603 1.16452 0.80603 2.59575V17.5262C0.80603 18.9576 1.97055 20.1221 3.40178 20.1221H12.4603C13.4796 21.3195 14.9453 22 16.5309 22C19.4825 22 21.8837 19.5971 21.8837 16.6435C21.8837 15.2296 21.3382 13.8959 20.3476 12.8881ZM2.09509 17.5262V2.59575C2.09509 1.87535 2.68138 1.28906 3.40195 1.28906H14.6646C15.3852 1.28906 15.9713 1.87535 15.9713 2.59575V11.3162C13.2817 11.597 11.1781 13.8789 11.1781 16.6435C11.1781 17.4097 11.3379 18.1506 11.6444 18.8329H3.40195C2.68138 18.8329 2.09509 18.2468 2.09509 17.5262ZM16.5309 20.7109C15.2437 20.7109 14.0604 20.1199 13.2841 19.0897C12.7497 18.3802 12.467 17.5344 12.467 16.6435C12.467 14.4007 14.2902 12.5761 16.5309 12.5761C16.5521 12.5761 16.5734 12.5764 16.5945 12.5768L16.6044 12.5769C17.6741 12.5959 18.677 13.0273 19.4283 13.7916C20.1804 14.5568 20.5947 15.5698 20.5947 16.6435C20.5947 18.8863 18.7717 20.7109 16.5309 20.7109Z" fill="white"/>
</g>
<defs>
<clipPath id="clip0">
<rect width="22" height="22" fill="white" transform="translate(0.333374)"/>
</clipPath>
</defs>
</svg>
